<svg xmlns="http://www.w3.org/2000/svg" xmlns:xlink="http://www.w3.org/1999/xlink" width="140.647" height="140.704" viewBox="0 0 140.647 140.704"><defs><clipPath id="a"><rect width="140.647" height="140.704" fill="#565759"/></clipPath></defs><g clip-path="url(#a)"><path d="M448.526,259.834v30.082c-.228-.178-.364-.264-.475-.375-1.854-1.849-3.7-3.71-5.562-5.548a14.768,14.768,0,0,0-2.366-2.04,15.332,15.332,0,0,1-2.306-2.237L435.4,277.3l-2.279-2.279-2.279-2.279-2.279-2.279-2.279-2.279L424,265.9l-2.422-2.421L419.3,261.2l-2.279-2.279-2.279-2.279-2.279-2.279-2.279-2.279-2.279-2.279-2.422-2.421-2.279-2.279-2.279-2.279-2.279-2.279-2.279-2.279-2.422-2.421-2.279-2.279-2.279-2.279c-.76-.759-1.515-1.524-2.281-2.277-.476-.468-.968-.92-1.394-1.322v-.783c.2-.457.682-.73,1.031-1.119s.755-.764,1.135-1.144l1.14-1.139,1.282-1.282,1.14-1.139,1.14-1.139,1.14-1.139c.38-.38.77-.75,1.137-1.142a5.258,5.258,0,0,1,1.243-.882,7.388,7.388,0,0,0,1.3-1.252l1.14-1.139,1.14-1.139,1.132-1.132,47.721,47.708" transform="translate(-307.928 -169.349)" fill="#565759"/><path d="M128.017,448.964H98.822c-.2,0-.437.064-.594-.02-.127-.068-.2-.308-.22-.48-.012-.094.111-.222.2-.312.326-.338.662-.667.995-1q25.922-25.915,51.846-51.828a6.7,6.7,0,0,1,1.66-1.326,7.575,7.575,0,0,0,1.589-1.524l1.709-1.709,1.567-1.566,1.566-1.566,1.458-1.457,15.112,15.108-47.691,47.679" transform="translate(-78.244 -308.302)" fill="#565759"/><path d="M62.457,160.658v.493L47.509,176.095c.057,0-.012.012-.076,0a.354.354,0,0,1-.164-.086q-1.642-1.635-3.279-3.275l-.855-.855-.143-.142c-.047-.048-.1-.094-.142-.143a.524.524,0,0,1-.125-.149.683.683,0,0,1-.005-.2.519.519,0,0,0-.017-.194c-.026-.057-.09-.1-.138-.145l-.285-.285-.855-.855L.108,128.457c-.035-.053-.093-.1-.1-.159a3.57,3.57,0,0,1,0-.4Q.023,113.2.047,98.5c0-.048.089-.095.116-.121l62.294,62.278" transform="translate(0 -78.541)" fill="#565759"/><path d="M229.4,62.414,214.283,47.306l27.026-27.019,2.279-2.279c.206-1.09,1.231-1.509,1.866-2.243.7-.81,1.506-1.531,2.266-2.291L250,11.195l2.137-2.137,2.28-2.279L256.7,4.5l2.137-2.137,2.28-2.279c7.708-.148,28.139-.093,30.385.084a.929.929,0,0,1-.129.28Q260.386,31.434,229.4,62.414" transform="translate(-171.071 0.001)" fill="#565759"/><path d="M401.257,559.742l25.814,25.807c.427.427.862.847,1.275,1.287a.484.484,0,0,1,.072.365c-.036.21-.164.312-.41.311q-4.632-.013-9.263-.006-9.565,0-19.13-.009c-.313,0-.689.178-.944-.135-.3-.367-.866-.247-1.131-.7-.287-.492-.995-.7-.986-1.406l-1.282-1.281-9.564-9.562q7.179-7.177,14.348-14.363a1.253,1.253,0,0,1,1.2-.308" transform="translate(-307.927 -446.845)" fill="#565759"/><path d="M587.27,96.118c.112.146.185.2.185.248q.008,15.089,0,30.178l-12.579,12.574-15.206-15.2c.006-.027-.008-.191.067-.266q13.723-13.738,27.527-27.532" transform="translate(-446.812 -76.735)" fill="#565759"/><path d="M99.756.653c.108-.108.155-.2.2-.2Q114.853.447,129.713.45L142.1,12.832c-.008.067.024.243-.048.315q-7.52,7.541-15.057,15.067l-1.6-1.6-1.424-1.423-1.566-1.566-1.566-1.566L119.276,20.5l-1.424-1.424-1.566-1.566-1.566-1.566-1.566-1.566-1.424-1.424-1.566-1.566L108.6,9.821,107.173,8.4l-1.566-1.566c-.522-.522-1.066-1.024-1.56-1.571s-1.153-.91-1.43-1.62c-.253-.651-.845-1-1.289-1.476-.495-.531-1.045-1.011-1.572-1.512" transform="translate(-79.639 -0.359)" fill="#565759"/><path d="M.183,428.812s-.091-.05-.091-.1C.086,418.654.086,408.593.086,398.47c2.9-2.9,5.829-5.848,8.789-8.763.4-.393,1.012-.531,1.4-1a16.067,16.067,0,0,1,1.13-1.146l1.281-1.281c1.488,1.263,12.174,11.877,15.073,14.966L.183,428.812" transform="translate(-0.069 -308.384)" fill="#565759"/></g></svg>