<svg xmlns="http://www.w3.org/2000/svg" xmlns:xlink="http://www.w3.org/1999/xlink" width="602" height="498.807" viewBox="0 0 602 498.807"><defs><clipPath id="a"><rect width="602" height="183" transform="translate(-1052 382)" fill="#fff" stroke="#707070" stroke-width="1"/></clipPath></defs><g transform="translate(1052 -66.193)"><path d="M555.713,151.855c-.283-1.209-.358-2.45-.583-3.667-2.009-11.1-5.609-21.545-12.819-30.472-4.893-6.209-10-12.21-16.261-17.119-21.437-16.819-45.732-23.545-72.787-20.537-20.37,2.267-38.6,9.718-52.767,24.562-23.012,24.112-28.413,53.592-23.42,85.547,2.434,15.577,10.71,28.663,19.178,41.54,7.576,11.527,13.994,23.512,17.394,37.039,2.559,10.177,7.8,18.895,16.344,25.362,4.384,4.209,9.768,5.584,15.644,5.342.417-.017.833-.042,1.25-.067-.575.1-1.15.217-1.725.333-2.784.575-5.843.775-7.726,3.459-.833.483-1.675.958-2.509,1.45-7.593,4.434-7.86,9.452-.792,14.486,4.067,3.084,8.776,2.825,13.185,2.692-2.717.883-6.151.967-8.16,4.009-7.893,5.476-7.6,11.635.767,15.911a11.5,11.5,0,0,0,7.776,1.6c-2.459.875-4.126,1.05-5.276,2.35-6.1,3.117-7.626,7.718-5.759,14.369,3.192,11.36,5.726,22.912,8.543,34.389.467,1.909,1.192,3.659,3.076,4.634,3.976,1,5.418.008,6.309-5.217a48.451,48.451,0,0,0,3.751,15.161c.4,1.417.809,2.834,1.192,4.259.683,2.567.817,5.434,3.726,6.784,2.884,1.25,4.676-.05,5.9-2.567.592-1.225.934-2.542,1.467-3.8.625-1.559,1.167-3.15,1.75-4.717.975-2.65,1.534-5.426,2.592-8.051.942-1.359,1.884-.508,2.859-.017,3.026,1.517,5.343.392,7.26-2.034a16.391,16.391,0,0,0,2.534-5.651c3.275-10.718,7.076-21.27,10.393-31.972a32.583,32.583,0,0,1,4.567-9.251c3.892-5.534,5.151-11.618,2.55-18.078a5.15,5.15,0,0,1,.75-5.734c2.659-3.384,3.184-7.268,2.25-11.4a18.64,18.64,0,0,0-2.842-5.092c-1.775-1.892-4.117-3.451-1.184-6.468,7.71-7.91,11.044-17.878,11.935-28.58a65.606,65.606,0,0,1,8.218-27.146c6.851-12.2,14.686-23.829,20.537-36.606,8.918-19.436,12.927-39.681,10.91-61.035M439.353,311.222c12.985-5.334,25.812-5.393,39.506-2.534-7.626,3.867-32.413,5.418-39.506,2.534m4.109,22.662c5.734-5.268,30.247-7.526,41.048-3.642-13.369,3.7-26.838,6.176-41.048,3.642M484.494,353.6c-12.71,5.092-25.487,4.042-38.356.358a61.16,61.16,0,0,1,38.356-.358m-.408,19.361c-1.159,1.55-1.342,3.451-1.917,5.242-1.617-.167-1.375-1.834-2.142-2.684-2.209-2.459-5.809-2.125-6.943.9-1.767,4.7-3.284,9.5-4.9,14.261q-1.288,4.338-2.567,8.676a127.063,127.063,0,0,1-5.726-22.77c-.808-1.134-1.609-2.275-2.417-3.409-4.2-.867-6.184,1.3-6.976,6.043-2.075-5.059-2.85-9.568-3.809-13.994-.608-2.85,1.584-1.409,2.575-1.267,9.9,1.417,19.811,1.875,29.713.233,2.717-.442,5.368-1.267,8.7-2.084-1.042,3.867-1.767,7.51-3.592,10.852m10.627-25.837a1.971,1.971,0,0,1-2.267.4c-6.484-2.842-13.36-4.176-20.378-5.284,7.251-1.717,14.394-3.317,21.153-6.251,1.834-.8,2.775-.233,3.517,1.517,1.125,2.675.092,7.843-2.025,9.618m-.433-22.737c-6.884-3.326-14.277-4.076-21.729-4.776,6.059-1.634,12.044-3.142,17.728-5.726,3.084-1.409,9.368,3.442,9.076,6.776-.225,2.525-3.025,4.717-5.076,3.726m50.708-148.507c-1.575,13.11-6.051,25.271-11.835,37.073-5.568,11.36-13,21.645-18.711,32.914-4.342,8.56-7.868,17.244-8.343,27.179-.483,10.118-3.5,19.645-11.41,26.913-2.05,1.884-4.051,2.834-6.718,1.642-5.059-1.267-10.11-2.584-15.261-3.426a102.628,102.628,0,0,0-18.32.142,51.354,51.354,0,0,0,19.978-9.4,22.981,22.981,0,0,0,9.418-15.086,55.739,55.739,0,0,0-2-25.371,70.609,70.609,0,0,0-2.775-6.951,5.051,5.051,0,0,1,.033-4.776c8.585-15.911,13.1-33.239,17.111-50.666,1.592-6.893,3.951-11.977,11.11-14.936,6.776-2.809,8.926-9.568,6.851-16.311-2.417-4.192-6.034-6.634-10.877-6.209-5.051.433-8.16,3.692-9.885,8.335-.475,1.3-.917,2.609-1.367,3.917-1.725,5.009-2.075,5.209-7.593,4.342-3.609-.833-6.518-2.875-9.31-5.2-2.092-1.759-2.625-3.492-1.325-6.118,2.067-4.184,2.859-8.643,1.1-13.219a6.867,6.867,0,0,0-1.059-1.784,11.712,11.712,0,0,0-14.711-2.75c-4.151,2.125-5.676,6.584-4.226,12.252a26.581,26.581,0,0,0,2.4,6.193c1.184,2.159.783,3.867-.925,5.593a45.121,45.121,0,0,1-9.018,6.659,19.051,19.051,0,0,0-1.8,1.034c-2.742,1.942-3.892.858-4.251-2.1a19.415,19.415,0,0,0-1.517-6.418,9.806,9.806,0,0,0-1.45-2c-4.109-4.551-8.776-5.976-13.7-4.192-5.259,1.909-8.135,6.4-8.251,12.61-.133,6.993,3.459,11.794,9.177,15.077,2.425,1.4,3.367,2.8,2.834,5.576s-.567,5.609,2.767,6.968c4.009.408,6.518-1.609,7.218-5.293.933-4.867,3.567-7.7,8.185-9.376,5.226-1.9,9.8-5.092,14.177-8.51,5.209-4.067,5.184-4.1,10.61-.083a37.016,37.016,0,0,0,9.526,4.742c6.868,2.542,6.9,2.467,5.143,9.593-.067.258-.175.517-.242.775-1.258,4.676-2.15,9.452-3.634,14.069-2.784,8.693-5.059,17.561-8.91,25.9-1.25,2.717-2.575,3.892-5.193,1.584a9.979,9.979,0,0,0-1.709-1.167c-6.826-3.9-15.878-2.1-19.678,3.9-4.117,6.509-2.067,15.044,4.717,19.528a16.265,16.265,0,0,0,12.51.858c6.951-2.084,7.8-1.5,8.976,5.793a25.949,25.949,0,0,1,.183,2.9c-.017,1.675.525,3.276.659,4.934.5,6.218.483,12.244-5.143,16.628a41.082,41.082,0,0,1-18.345,8.385c-4.642.8-9.418.758-13.786-1.692a13,13,0,0,1-3.651-2.692c-6.5-6.026-9.243-14.011-11.544-22.187A100.269,100.269,0,0,0,410.648,237.2c-4.917-8.185-10.435-16.011-15.052-24.387-2.917-5.8-6-11.5-7.826-17.828-5.393-18.645-3.809-37.081,1.859-55.226,4.117-13.194,11.277-24.637,22.545-33.122a24.806,24.806,0,0,1,4.467-3.709c30.63-18.57,61.868-19.745,93.115-2.15,29.471,16.594,39.556,45.957,35.231,75.1M501.83,160.414c.408-1.1.708-2.475,2.225-2.684a1.275,1.275,0,0,1,1.559.983c.383,1.567-.508,2.65-1.559,3.551a24.926,24.926,0,0,1-2.675,1.792c-.908-1.492.05-2.567.45-3.642m-36.5-10.11c-.9-2.559-2.959-4.151-1.325-6.476a1.219,1.219,0,0,1,1.834.008c1.642,1.909.567,3.776-.508,6.468m-34.547,22.612c-2.6-.017-5.684-3.876-5.384-6.976.175-1.884.533-4.026,3.209-4.051,2.542-.025,3.942,2.75,3.917,7.793-.417,1.067.925,3.242-1.742,3.234m34.956,65.119c-1.567,2.734-4.476,3.426-7.443,3.467-3,.042-4.767-1.709-4.709-4.559.067-2.925,2.117-4.284,4.742-4.317,2.8.2,8.135,4.142,7.409,5.409" transform="translate(-1182.054 52.976)" fill="#0e2340"/><g transform="translate(-1119.543 66.192)"><path d="M598.8,257.339a21.222,21.222,0,0,1-3.195-2.384c-.976-1.045-2.284-2.276-1.448-3.911.765-1.5,1.485-3.211,3.845-2.942a10.144,10.144,0,0,1,4.346,1.063q13.954,8.231,28.012,16.288a7.909,7.909,0,0,1,3.4,3.506c.5,4.775-2.711,7.124-7.184,4.982a150.04,150.04,0,0,1-13.372-7.553c-4.834-2.957-9.877-5.6-14.4-9.05" transform="translate(-98.902 -41.313)" fill="#999da6"/><path d="M359.146,250.626a5.155,5.155,0,0,1-2.846,5.461q-14.384,8.156-28.708,16.418a10.657,10.657,0,0,1-4.282,1.406c-4.587-3.765-4.45-5.96.7-8.94,9.094-5.267,18.273-10.388,27.318-15.738,3.21-1.9,5.678-1.679,7.822,1.394" transform="translate(-53.291 -41.303)" fill="#999da6"/><path d="M324.978,99.416c-.926-.788-1.837-1.594-2.78-2.363-1.945-1.584-2.916-3.483-1.324-5.758,1.648-2.355,3.884-2.356,6.225-.992q6.8,3.964,13.6,7.944,8.768,5.142,17.524,10.3c1.56,1.886,2.334,3.9.328,5.893-2.157,2.144-4.782,2.153-7.277.763-5.8-3.226-11.41-6.779-17.267-9.907-3.178-1.7-6.037-3.894-9.029-5.882" transform="translate(-53.303 -14.885)" fill="#999da6"/><path d="M633.056,91.094c1.355,3.281.286,5.412-2.814,7.125-9.22,5.1-18.338,10.38-27.474,15.628-1.721.988-3.416,1.853-5.479,1.348-3.606-3.719-3.426-5.763.952-8.315,9.308-5.426,18.691-10.725,27.984-16.176,2.479-1.454,4.652-1.477,6.831.39" transform="translate(-99.047 -14.93)" fill="#999da6"/><path d="M406.067,62.361c-3.728-3.611-5.545-8.465-8.191-12.767-3.531-5.741-6.713-11.7-10.046-17.559-1.479-2.6-3.143-5.536.281-7.568,3.272-1.942,5.337.469,6.908,3.175a5.9,5.9,0,0,0,.808.907c6.31,8.316,10.843,17.7,16.059,26.678,1.251,2.152,1.5,4.627-.441,6.555-1.489,1.483-3.351,2.625-5.378.579" transform="translate(-64.298 -3.957)" fill="#999da6"/><path d="M339.139,180.985c.809,5.111-.265,6.413-5.536,6.447-11.424.072-22.85.091-34.274.132-1.994-1.187-3.816-2.59-3.069-5.246.78-2.771,3.03-3.176,5.6-3.16,10.665.069,21.331.055,32,.013,2.015-.008,3.863.212,5.283,1.814" transform="translate(-49.309 -29.836)" fill="#999da6"/><path d="M339.139,180.985c.809,5.111-.265,6.413-5.536,6.447-11.424.072-22.85.091-34.274.132-1.994-1.187-3.816-2.59-3.069-5.246.78-2.771,3.03-3.176,5.6-3.16,10.665.069,21.331.055,32,.013,2.015-.008,3.863.212,5.283,1.814" transform="translate(216.851 -29.836)" fill="#999da6"/><path d="M484.228,2.885q-.058,17.21-.121,34.42c-.025,5.31-1.14,6.218-6.541,5.438a6.706,6.706,0,0,1-1.785-5.232c.08-10.6.048-21.2.029-31.807,0-2.258-.105-4.588,2.609-5.433,2.619-.815,4.545.248,5.809,2.613" transform="translate(-79.233 0)" fill="#999da6"/><path d="M570.657,26.827a10.416,10.416,0,0,1-1.39,4.69Q560.928,45.53,552.7,59.611c-1.253,2.155-2.838,3.276-5.35,2.916-2.82-1.829-3.319-4.2-1.656-7.077,5.588-9.677,11.093-19.4,16.8-29.011,2.212-3.724,5.053-3.471,8.165.388" transform="translate(-90.718 -3.961)" fill="#999da6"/></g><path d="M513.7,507.7h.01l.03-.027Z" transform="translate(-1205.091 -18.352)" fill="#1d1c1b"/><path d="M785.158,518.224c.367,4.953-1.02,6.613-5.793,6.584-3.656-.022-7.4.223-10.728-1.818-2.169-5.47-.157-8.475,5.523-7.7,3.741.51,8.15-1.044,11,2.932" transform="translate(-1247.404 -19.601)" fill="#0d0d0d"/><path d="M767.566,474.457c.888,3.01-.1,5.308-2.608,7.094-3.083,2.195-4.987,6.5-9.862,5.458-3.732-3.27-3.751-5.871-.073-9.072,1.346-1.171,2.743-2.291,4.009-3.543,2.9-2.865,5.711-2.885,8.534.063" transform="translate(-1244.823 -12.452)" fill="#0b0c0c"/><path d="M728.994,454.395c.038,3.02.168,6.044.093,9.062-.129,5.283-1.468,6.407-6.884,6.043-2.527-2.837-3.243-12.507-1.15-15.533,1.935-2.8,4.712-2.647,7.94.429" transform="translate(-1239.418 -9.076)" fill="#0f0f0f"/><path d="M512.415,507.674c-1.512,2.512-3.424,4.248-6.655,3.428,2.128-1.319,4.076-2.985,6.655-3.428" transform="translate(-1203.769 -18.352)" fill="#1d1b1c"/><path d="M529.859,524.266c1.438-1.677,3.38-.908,5.077-.91q79.844-.071,159.688-.037c2.214,0,4.541.349,5.573-2.378q.026,1.675.051,3.346-32.414-.049-64.826-.083-52.781,0-105.563.063" transform="translate(-1207.782 -20.561)" fill="#f38519"/><path d="M411.582,559.754c.948.057,1.952-.231,2.808.453a2.749,2.749,0,0,1-.063.781c-2.765,7.12-8.783,6.267-14.71,6.25q-51.631-.145-103.262-.016c-1.575,0-3.365-.678-4.7.851-.105,1.911-.243,3.821-.308,5.733-.171,4.995-3.835,7.323-8.44,5.259a32.77,32.77,0,0,1-5.828-3.052c-3.449-2.482-6.828-2.891-10.427-.5.068-2.137-.411-4.346,1.425-6.321-7.446-.063-8.078-.737-8.081-8.017,0-4.432.152-8.872-.044-13.3-.184-4.168,1.811-6.638,5.6-7.52a25.934,25.934,0,0,1,13.9.238c3.013.962,4.34,3.02,3.6,6.413a32.856,32.856,0,0,0,.022,13.958,7.23,7.23,0,0,1-.921,5.963c-1.454,2.066-3.095,3.64-5.833,1.824a2.979,2.979,0,0,0-3.226-.362c2.435,4.747,6.559,6.669,11.588,7.07,1.925.153,2.591-.968,2.819-2.78.834-6.633,2.388-7.961,8.99-7.961,35.62,0,71.24-.093,106.858.12,4.3.026,6.778-1.3,8.232-5.093" transform="translate(-1162.832 -23.658)" fill="#080808"/><path d="M237.166,558.678c-9.231,0-9.264,0-9.219-9.206.03-6.288-.826-5.447,5.448-5.534.552-.007,1.1,0,1.655,0,11.659,0,11.594,0,11.325,11.7-.052,2.278-.574,3.291-3,3.078-2.054-.181-4.136-.037-6.205-.037" transform="translate(-1157.5 -24.391)" fill="#f5f6f7"/><path d="M520.21,516.119l-6.817,3.15a3.609,3.609,0,0,0-.753-2.684c-1.011-1.088-2.383-2.1-.641-3.71,2.013-1.859,2.911.164,3.952,1.184,1.224,1.2,2.457,2.155,4.259,2.059" transform="translate(-1204.669 -19.092)" fill="#1d1b1c"/><path d="M468.826,550.86c1.136.427,2.049,1.8,3.516.833,1.429,1.981,1,4.35,1.325,6.55.228,1.539-.823,1.747-2.053,1.515.727-3.486-2.134-5.847-2.789-8.9" transform="translate(-1197.618 -25.544)" fill="#d0833b"/><g transform="translate(-1119.543 66.192)"><path d="M698.939,517.342q-.01,1.324-.019,2.649c-.09,1.809-.94,2.828-2.854,2.8-1.109-.016-2.218,0-3.327,0q-79.654,0-159.307.028c-1.612,0-3.326-.535-4.85.493l.056-.03a3.839,3.839,0,0,1-3.932-.512c-1.593-1.009-2.995-2.48-2.362-4.433.731-2.257,2.646-1.335,4.207-.859.927.283,2.029.888,2.685-.069,1.869-2.723,4.613-2.076,7.177-2.077q78.625-.02,157.248.016c1.938,0,4.34-.828,5.278,1.99" transform="translate(-86.962 -85.804)" fill="#dd3944"/><path d="M693.179,517.246c-1.317-1.518-3.042-1.63-4.914-1.629q-79.469.04-158.937.017c-1.92,0-3.7-.341-4.306,2.523-.476,2.26-2.216,3.109-4.245.915-.87-.942-2.049-2.617-3.343-1.134-1.221,1.4.673,2.35,1.475,3.368a4.672,4.672,0,0,0,3.968,1.884c-13.119,3.166-23.6,9.971-30.318,21.961A26.066,26.066,0,0,0,489.3,553.6c-2.224.443-1.688-.864-1.523-2.2,1.549-12.532,7.87-22.128,17.979-29.421,1-.722,2.044-1.386,3.066-2.077a.586.586,0,0,0,.645-.218c1.485-2.751,4.322-2.58,6.816-3.15a.572.572,0,0,0,.673-.165,46.754,46.754,0,0,1,13.532-1.7q79.209,0,158.418-.016c1.512,0,3.024.23,4.536.353l-.265,2.228" transform="translate(-81.202 -85.709)" fill="#dd3944"/><path d="M428.7,544.788c-6.172-9.881-14.427-17.084-25.874-20.254a33.586,33.586,0,0,0-9.009-1.387q-82.826,0-165.652-.021c-.726-8.533-.726-8.548,7.752-8.549,49.834-.008,99.672.349,149.5-.172,22.469-.235,38.143,8.562,46.686,29.5q.057.86.114,1.722c-1.756,2.178-2.513.148-3.517-.835" transform="translate(-37.948 -85.665)" fill="#dd3944"/><path d="M218.016,401.269c-7.866.417-15.8.368-23.343,3.139-1.4.514-3.01.64-4.046,1.934-5.533,1.6-9.391,5.491-13.1,9.587-6.245,6.908-9.445,15.412-12.574,23.954a12.773,12.773,0,0,1-.728,1.428c-1.141-16.59,8.491-33.624,21.946-38.772,1.788-.684,3.616-1.264,5.426-1.891,7.741-1.071,15.471-2.31,23.335-1.54,1.446.142,3.265-.284,3.08,2.163" transform="translate(-27.334 -66.425)" fill="#dd3944"/><path d="M485.545,100c-3.383-1.859-7.215-1.648-10.831-1.97-7.819-.7-15.7-1.274-23.5.435a88.233,88.233,0,0,0-26.757,8.332c-1.9.947-3.906,2.235-6.218.948,6.534-6.538,14.725-10.336,23.2-13.389,18.554-6.68,37.575-7.576,56.368-1.7,22.433,7.01,40.5,19.917,50.269,42.182a72.4,72.4,0,0,1,5.013,42.215c-1.5-15.209-4.952-29.808-14.133-42.408-13.356-18.33-31.253-29.807-53.417-34.642" transform="translate(-69.651 -14.779)" fill="#dd3944"/><path d="M280.739,555.368c0,2.622-.083,5.247.017,7.866.1,2.568-.989,2.97-2.907,1.666-3.737-2.54-7.383-2.635-11.157-.068-2,1.362-2.958.705-2.923-1.741.073-5.106.1-10.214.014-15.32-.033-2.047.543-3.147,2.793-2.944,1.233.112,2.485.015,3.727.015,10.44,0,10.44,0,10.435,10.525" transform="translate(-43.926 -90.728)" fill="#dd3944"/></g><g clip-path="url(#a)"><path d="M778.333,564.811q-68.286-.016-136.572.078c-3.466.009-4.507-.879-4.385-4.36.262-7.481.036-14.978.1-22.468.025-2.9-1.176-4.807-3.988-5.487a15.214,15.214,0,0,0-3.32-.089c-6.351-.081-5.617.835-5.632-5.408q-.043-18.518-.008-37.035c0-2.24.044-4.487-2.352-5.742-1.433-1.654-3.368-.939-5.068-.943q-31.8-.085-63.6-.043-50.713,0-101.425-.018c-7.511-.006-14.837.793-21.654,4.251l.006,0h-.006a12.87,12.87,0,0,1-6.618,3.4c-9.185,4.892-15.277,12.769-20.57,21.853-.5-.833-.775-1.275-1.042-1.725-10.6-18.311-26.279-27.771-47.658-27.738q-82.576.125-165.151.042c-6,0-7.193,1.117-7.209,6.885-.025,12.469-.2,24.946.108,37.414.1,4.134-1.159,5.534-5.067,4.834a4.626,4.626,0,0,0-.833-.008c-6.043.008-7.318,1.284-7.359,7.193-.067,8.16-.175,16.328-.258,24.5a102.392,102.392,0,0,1-21.9.233c-6.584-.483-6.559-1.017-6.568-7.843V469.277q0-1.663.05-3.326c.058-2.425,1.142-3.4,3.676-3.217a67.846,67.846,0,0,0,30.171-4.559c11.76-4.634,21.187-11.969,25.862-24.287a78.909,78.909,0,0,0,4.326-40.04,7.554,7.554,0,0,0-2.234-4.334c-1.659-1.284-3.776-1.134-5.626-1.842a76.7,76.7,0,0,0-29.4.809c-17.661,2.325-28.363,13.152-34.964,29.33-5.768-9.368-14.027-14.261-24.046-16.353a73.137,73.137,0,0,0-16.953-1.35c-12.11.317-12.569.292-13.235,12.11-1.05,18.528,2.642,35.164,21.128,44.615,6.884,4.467,14.494,5.784,22.579,5.543,5.976-.175,6.976.958,6.984,6.959.017,13.277.042,26.554-.025,39.831-.017,3.434.433,6.9-.3,10.318.008,4.126.142,8.26,0,12.385-.375,10.868.375,21.745-.583,32.6-1.367,1.1-3.05.133-4.5.667-1.459.7-3.009.342-4.509.342q-44.557.038-89.114.025c-1.525,0-3.05-.008-4.576,0-1.033.008-2.075.15-2.2,1.392-.433,4.026-2.242,2.325-3.992,1.017a9.767,9.767,0,0,0-2.834-1.717c-.617-.192-1.317-.608-1.909-.025a1.752,1.752,0,0,0-.167,1.959,22.543,22.543,0,0,0,3.559,6.068c1.517.083,3.034.242,4.542.242q53.346.025,106.7.042c1.625,0,3.309-.425,4.884.392,8.868-.108,17.736-.3,26.6-.3q87.314-.038,174.611-.025c2.483,0,4.974-.2,7.456-.308v0c9.433.567,18.868.3,28.3.042.005-.023.01-.046.014-.068.071.128.143.256.225.384,2.71,1.556,5.691,1.006,8.564,1.006q197.331.041,394.664.023c1.527,0,3.053.018,4.579-.044a6.235,6.235,0,0,0,4.263-1.355v-9.156c-1.514-.09-3.029-.258-4.543-.258M102.245,417.119c-.767-.575-1.525-1.167-2.3-1.734a4.652,4.652,0,0,0-6.434.358c-2.034,1.959-2.125,4.442-.608,6.809a34.378,34.378,0,0,0,2.884,3.467c7.968,8.16,15.944,16.311,24.4,24.971-7.568-.959-14.569-1.684-20.387-6.443-4.534-2.367-7.3-6.209-9.043-10.893-2.525-6.768-2.675-13.827-2.517-20.928.025-1.109-.108-2.284,1.584-2.317,9.818-.225,19.4.508,27.846,6.309.267.192.325.683.483,1.034,7.668,6.359,9.276,15.144,10.068,24.187q-13.052-12.477-25.979-24.821m37.881,20.87c.025-18.528,8.685-31.213,25.879-37.923a4.486,4.486,0,0,0,1.067-.642c.1-.075.192-.158.292-.242,1.334.708,2.825.317,4.251.075a84.027,84.027,0,0,1,16.8-1.108c1.517.05,3.134-.158,3.459,1.959.567,2.592-.542,5.451.592,7.968-.033.342-.058.692-.075,1.042-.633,3.676-.442,7.484-1.775,11.043a10.341,10.341,0,0,0-1.017,3.584,25.059,25.059,0,0,1-9.81,16.778,43.144,43.144,0,0,1-18.078,8.026c-4.009.858-8,1.875-12.3,1.225.708-1.725,2.025-2.575,3.076-3.634q15.965-16.015,31.972-31.98c2.309-2.309,4.526-4.659,2.842-8.326-3.084-4.059-6.776-4.5-10.518-.975-5.343,5.034-10.4,10.352-15.886,15.252-6.509,5.826-12.46,12.235-18.678,18.37-.75.733-.767.717-2.084.317-.008-.258-.008-.533-.008-.808m269.609,92.028a42.9,42.9,0,0,1,12.446-24.231c2.36-2.287,5.607-3.621,7.365-6.542a3.285,3.285,0,0,0,1.059-.478c1.809-1.925-1.075-3.767-.2-6,2.567.85,4.034,4.034,7.093,2.976a2.1,2.1,0,0,0,.7-.56c1.053.842,2.293.519,3.406.277a55.713,55.713,0,0,1,12.014-.793q77.017.013,154.035-.02c1.711,0,3.493.3,5.166-.149a2.313,2.313,0,0,1,.581,1.786c.036.9,0,1.807.066,2.708a22.055,22.055,0,0,1-.237,4.3c-.816,4.155-4.2,2.924-6.7,2.928q-66.422.116-132.845.06a28.708,28.708,0,0,0-6.639.333c-3.025.715-4.872,2.589-5.043,5.79-.161,3.016,1.844,5.479,5.036,6.23a28.771,28.771,0,0,0,6.639.355q65.589.011,131.178.009a43.191,43.191,0,0,1,5.406.166c1.349.169,2.531.652,2.673,2.139.338,3.557,1.085,7.187-1.151,10.482a3.656,3.656,0,0,1-.886.809c-.965-.059-1.931-.118-2.9-.118q-96.528-.011-193.057-.009c-1.52,0-3.041-.114-4.561-.175a2.171,2.171,0,0,1-.644-2.267m-216.092-29.96c.158-5.034.308-5.184,5.159-5.276.55-.008,1.109,0,1.667,0q77.637,0,155.291-.017c15.386-.008,26.738,7.018,35.064,19.57,1.692,2.55,2.642,5.5,4.4,8.018a5.51,5.51,0,0,0,.807.813,2.312,2.312,0,0,0-.224,1.076q.346,2.434.889,4.823c.431,1.911-.532,2.473-2.24,2.292-2.7.291-5.633-.794-8.055,1.3-.023.022-.048.033-.071.054.017-.075.037-.143.052-.223-2.184-1.734-4.776-1.234-7.218-1.234q-59.734-.05-119.469-.025a41.513,41.513,0,0,1-4.984-.158,2.666,2.666,0,0,1-2.534-2.284c-1.834-7.134.092-9.785,7.251-9.793h74.5a41.2,41.2,0,0,0,5.826-.183c3.734-.542,6.068-2.959,6.051-6.218-.017-3.084-2.15-5.326-5.809-6.034a34.69,34.69,0,0,0-6.643-.292q-65.348-.013-130.7-.008c-1.525,0-3.059-.083-4.576-.008-2.942.142-4.4-1.208-4.492-4.117-.05-.7.042-1.384.058-2.075m176.377,34.235h.553c.078,4.548-1.464,6.216-5.9,6.219h-1.032a10.927,10.927,0,0,0,3.035-.372c2.97-.878,4.282-3.275,3.341-5.847m-6.958,6.219q-37.427.026-74.854.009c-10.805,0-21.611-.039-32.415.035-.358,0-.733-.02-1.112-.039.55-.013,1.139-.019,1.8-.019q52.408-.013,104.817-.008c.585,0,1.173.017,1.759.023m-110.2-6.219h.153c.042.124-.075.083-.153,0m372.4,27.759c-.06.522-.73.783-1.15,1.124-2.069,1.109-4.331.688-6.521.689q-118.95.031-237.9.02c-1.94,0-3.881-.063-5.819.115-.148.014-.291.038-.434.06q-10.05,0-20.1.008-4.677,0-9.355,0a28.989,28.989,0,0,0-3.435-.153c-1.109-.092-2.217-.025-3.334-.025q-74.512,0-149.032-.017c-2.05,0-4.184.425-6.126-.733-1.684-1.017-1.742-2.7-1.767-4.376-.05-3.592.075-7.193-.042-10.785-.1-3.067,1.3-4.167,4.242-4.142,6.359.067,12.727.033,19.095.017,4.867-.008,5.676.242,6.059,5.026.375,4.576,3.734,7.059,8.035,6.276,3.417-.625,6.659-1.875,8.735-5,.283-.783.325-1.634.575-2.417.983-3.159.717-5.351-3.384-5.609-2.625-.158-3.176-2.417-3.259-4.592-.192-5.117-.1-10.243-.033-15.377.042-3.467,1.884-5.4,5.1-6.093a26.71,26.71,0,0,1,11.143-.033c2.975.608,4.534,2.309,4.059,5.634a51.174,51.174,0,0,0-.033,13.26c.692,5.809-.308,6.909-6.318,6.943-.975.008-2.067-.083-2.6.892s.167,1.85.708,2.625a12.62,12.62,0,0,0,10.177,5.568c2.817.158,4.359-.975,5.076-3.734,1.221-4.736,1.839-6.141,4.819-6.551a2.7,2.7,0,0,0-1.8,1.947q76.5-.018,153-.033a5.448,5.448,0,0,0,.738.181,33.528,33.528,0,0,0,5.815.185q104.262.009,208.522.027c2.033,0,4.192-.532,6.069.851,1.942,6.02,1.177,12.13.471,18.229" transform="translate(-1121.824 1.804)" fill="#0e2340"/></g></g></svg>