<svg xmlns="http://www.w3.org/2000/svg" width="101.904" height="97.706" viewBox="0 0 101.904 97.706"><path d="M75.093,57.662a1.714,1.714,0,0,1-.165-.056c-.056-.016-.111-.037-.167-.058a.147.147,0,0,1-.037-.016,2.236,2.236,0,0,1-.252-.1.263.263,0,0,1-.056-.024c-.077-.032-.151-.069-.226-.106a.656.656,0,0,1-.069-.037c-.066-.032-.133-.069-.2-.106a.939.939,0,0,1-.1-.058c-.056-.032-.109-.063-.162-.1-.029-.016-.058-.034-.088-.053-.066-.045-.135-.09-.2-.138a5.887,5.887,0,0,1-1.03-.942c-.056-.061-.106-.122-.157-.186a.056.056,0,0,1-.016-.021c-.058-.074-.117-.149-.172-.226a.084.084,0,0,1-.019-.029c-.061-.082-.117-.167-.172-.254s-.111-.181-.165-.276-.1-.188-.151-.284c.005.013.011.024.016.034.021.042.042.085.064.125a6.11,6.11,0,0,0,.451.765A89.3,89.3,0,0,1,53.672,73.043C47.03,77.78,36.391,83.3,31.97,84.393c-.953-.963-1.1-1.438-2.41-2.046.088.045.172.09.257.141a1.34,1.34,0,0,1,.117.069c.032.019.066.04.1.061a.17.17,0,0,1,.037.021.1.1,0,0,1,.027.019c.045.029.09.056.133.088.1.069.2.141.3.22a1.586,1.586,0,0,1,.13.1c.074.061.149.122.218.188s.135.122.2.188a.126.126,0,0,1,.027.027c.061.061.125.127.183.194s.127.143.188.218.122.149.178.226c.042.056.085.109.122.167s.069.1.1.154.069.1.1.157a5.913,5.913,0,0,1,.5,1.027c.013.035.027.069.037.106a.079.079,0,0,1,.011.027c.016.045.029.088.045.135.029.088.056.178.077.268.011.037.021.072.029.109.019.077.037.154.053.234s.037.186.05.279c0,.024.008.048.011.072.013.082.021.165.029.247a5.851,5.851,0,0,1,.032.613c0,.085,0,.173-.008.257a.009.009,0,0,0,0-.005c.027-.215.053-.43.082-.655A93.139,93.139,0,0,0,74.316,57.452c.387.1.727.207,1.062.292-.1-.024-.191-.053-.284-.082m3.1-54.243a6.343,6.343,0,0,1,.9-.066,5.951,5.951,0,0,1,2.213.422,5.026,5.026,0,0,0-3.118-.356m6.04,2.824a5.9,5.9,0,0,1,.788,2.126,5.334,5.334,0,0,0-.788-2.126M72.516,47.8a92.674,92.674,0,0,0-30.993-9.386c-.135-.223-.268-.438-.4-.655a5.753,5.753,0,0,1,.345.948c.013.042.024.088.035.13a4.626,4.626,0,0,1,.1.5.62.62,0,0,1,.011.069c.016.1.029.2.037.3.008.074.013.154.019.231.008.117.011.234.011.353,0,.093,0,.183-.008.273,0,.029,0,.058-.005.09v0a.037.037,0,0,1,0,.024,2.107,2.107,0,0,1-.019.223c-.008.088-.019.173-.032.257l-.016.106c-.013.082-.029.164-.045.247l-.024.1a.428.428,0,0,1-.013.056c-.019.08-.04.156-.061.236-.037.143-.082.281-.133.419-.021.058-.042.117-.066.172a.665.665,0,0,1-.029.077,8.941,8.941,0,0,0,.441-1.128A88.813,88.813,0,0,1,71.028,50.4a8.277,8.277,0,0,0-.117.862A5.966,5.966,0,0,1,72.516,47.8m2.577,9.859a1.714,1.714,0,0,1-.165-.056c-.056-.016-.111-.037-.167-.058a.147.147,0,0,1-.037-.016,2.236,2.236,0,0,1-.252-.1.263.263,0,0,1-.056-.024c-.077-.032-.151-.069-.226-.106a.656.656,0,0,1-.069-.037c-.066-.032-.133-.069-.2-.106a.939.939,0,0,1-.1-.058c-.056-.032-.109-.063-.162-.1-.029-.016-.058-.034-.088-.053-.066-.045-.135-.09-.2-.138a5.887,5.887,0,0,1-1.03-.942c-.056-.061-.106-.122-.157-.186a.056.056,0,0,1-.016-.021c-.058-.074-.117-.149-.172-.226a.084.084,0,0,1-.019-.029c-.061-.082-.117-.167-.172-.254s-.111-.181-.165-.276-.1-.188-.151-.284c.005.013.011.024.016.034.021.042.042.085.064.125a6.11,6.11,0,0,0,.451.765A89.3,89.3,0,0,1,53.672,73.043C47.03,77.78,36.391,83.3,31.97,84.393c-.953-.963-1.1-1.438-2.41-2.046.088.045.172.09.257.141a1.34,1.34,0,0,1,.117.069c.032.019.066.04.1.061a.17.17,0,0,1,.037.021.1.1,0,0,1,.027.019c.045.029.09.056.133.088.1.069.2.141.3.22a1.586,1.586,0,0,1,.13.1c.074.061.149.122.218.188s.135.122.2.188a.126.126,0,0,1,.027.027c.061.061.125.127.183.194s.127.143.188.218.122.149.178.226c.042.056.085.109.122.167s.069.1.1.154.069.1.1.157a5.913,5.913,0,0,1,.5,1.027c.013.035.027.069.037.106a.079.079,0,0,1,.011.027c.016.045.029.088.045.135.029.088.056.178.077.268.011.037.021.072.029.109.019.077.037.154.053.234s.037.186.05.279c0,.024.008.048.011.072.013.082.021.165.029.247a5.851,5.851,0,0,1,.032.613c0,.085,0,.17-.005.252.027-.215.053-.43.082-.655A93.139,93.139,0,0,0,74.316,57.452c.387.1.727.207,1.062.292-.1-.024-.191-.053-.284-.082M72.516,47.8a92.674,92.674,0,0,0-30.993-9.386c-.135-.223-.268-.438-.4-.655a5.753,5.753,0,0,1,.345.948c.013.042.024.088.035.13a4.626,4.626,0,0,1,.1.5.62.62,0,0,1,.011.069c.016.1.029.2.037.3.008.074.013.154.019.231.008.117.011.234.011.353,0,.093,0,.183-.008.273,0,.029,0,.058-.005.09v0a.037.037,0,0,1,0,.024,2.107,2.107,0,0,1-.019.223c-.008.088-.019.173-.032.257l-.016.106c-.013.082-.029.164-.045.247l-.024.1a.428.428,0,0,1-.013.056,2.392,2.392,0,0,1-.061.236c-.037.143-.082.281-.133.419-.021.058-.042.117-.066.172a.665.665,0,0,1-.029.077,8.941,8.941,0,0,0,.441-1.128A88.813,88.813,0,0,1,71.028,50.4a8.277,8.277,0,0,0-.117.862A5.966,5.966,0,0,1,72.516,47.8m2.577,9.859a1.714,1.714,0,0,1-.165-.056c-.056-.016-.111-.037-.167-.058a.147.147,0,0,1-.037-.016,2.236,2.236,0,0,1-.252-.1.263.263,0,0,1-.056-.024c-.077-.032-.151-.069-.226-.106a.656.656,0,0,1-.069-.037c-.066-.032-.133-.069-.2-.106a.939.939,0,0,1-.1-.058c-.056-.032-.109-.063-.162-.1-.029-.016-.058-.034-.088-.053-.066-.045-.135-.09-.2-.138a5.887,5.887,0,0,1-1.03-.942c-.056-.061-.106-.122-.157-.186a.056.056,0,0,1-.016-.021c-.058-.074-.117-.149-.172-.226a.084.084,0,0,1-.019-.029c-.061-.082-.117-.167-.172-.254s-.111-.181-.165-.276-.1-.188-.151-.284c.005.013.011.024.016.034.021.042.042.085.064.125a6.11,6.11,0,0,0,.451.765A89.3,89.3,0,0,1,53.672,73.043C47.03,77.78,36.391,83.3,31.97,84.393c-.953-.963-1.1-1.438-2.41-2.046.088.045.172.09.257.141a1.34,1.34,0,0,1,.117.069.052.052,0,0,1,.021.011l.056.035c.021.013.04.027.058.037a.1.1,0,0,1,.027.019c.045.029.09.056.133.088.1.069.2.141.3.22a1.586,1.586,0,0,1,.13.1c.074.061.149.122.218.188s.135.122.2.188a.126.126,0,0,1,.027.027c.061.061.125.127.183.194s.127.143.188.218.122.149.178.226c.042.056.085.109.122.167s.069.1.1.154.069.1.1.157a5.913,5.913,0,0,1,.5,1.027c.013.035.027.069.037.106a.079.079,0,0,1,.011.027c.016.045.029.088.045.135.029.088.056.178.077.268.011.037.021.072.029.109.019.077.037.154.053.234s.037.186.05.279c0,.024.008.048.011.072.013.082.021.165.029.247a5.851,5.851,0,0,1,.032.613c0,.085,0,.17-.005.252.027-.215.053-.43.082-.655A93.139,93.139,0,0,0,74.316,57.452c.387.1.727.207,1.062.292-.1-.024-.191-.053-.284-.082m26.447-14.622a47.48,47.48,0,0,0-5.979-18.35c-.114-.2-.22-.4-.361-.658a8.59,8.59,0,0,0,.687-1.107,6.006,6.006,0,0,1-9.1,1.77,7.768,7.768,0,0,0,.894.669,89.285,89.285,0,0,1-9.1,20.659l-2.651-.191A69.426,69.426,0,0,0,58.773,23.142c.042-.18.085-.353.127-.523A6.026,6.026,0,0,1,56.562,25.4c.032-.016.061-.035.093-.053,5.552,4.1,14.118,15.405,16.52,21.822-.045.045-.09.1-.138.146a5.978,5.978,0,0,1,3.843-1.391c.074,0,.149,0,.223.006a1.443,1.443,0,0,1,.151.008l.122.008a1,1,0,0,1,.125.014c.056.005.111.01.167.018.085.011.167.021.249.037s.165.029.244.048.154.034.228.053a5.806,5.806,0,0,1,.8.271c.127.053.255.111.379.175.077.037.149.074.22.117.045.024.09.05.135.077a5.937,5.937,0,0,1,.7.478c.053.042.106.085.159.133s.13.114.194.172c.127.119.252.244.366.374l.053.058c.04.045.08.09.119.138.085.1.167.21.244.316a6.688,6.688,0,0,1,.425.682,7.055,7.055,0,0,0-1.059-1.491A94.289,94.289,0,0,0,90.57,26.164c.717-.125,1.391-.239,2.176-.374a44.247,44.247,0,0,1,5.764,16.9,45.576,45.576,0,0,1-2.426,22.14,95.571,95.571,0,0,0-13.431-11.05,8.469,8.469,0,0,0,.2-1.245,6.006,6.006,0,0,1-7.181,5.27.557.557,0,0,0,.064.016c.451.09.913.136,1.494.215.263,1.093.568,2.232.812,3.386s.425,2.341.64,3.514a5.166,5.166,0,0,0,.178.772,1.383,1.383,0,0,0,1.555.942,1.331,1.331,0,0,0,1.268-1.393,17.431,17.431,0,0,0-.337-2.454c-.385-1.906-.812-3.806-1.231-5.754l.961-.727a89.059,89.059,0,0,1,13.77,11.517A45.578,45.578,0,0,1,83.676,83.079L82.1,82.233c.072-1.064.165-2.144.207-3.224.064-1.653.114-3.307.122-4.963A1.41,1.41,0,0,0,80.977,72.5a1.462,1.462,0,0,0-1.518,1.587c-.069,1.985-.122,3.97-.2,5.952-.027.626-.114,1.247-.178,1.924a6.719,6.719,0,0,0-2.11.849c.141-.085.284-.162.433-.234.037-.019.074-.037.111-.053.125-.058.252-.114.382-.162.045-.019.09-.035.138-.05.072-.027.146-.053.22-.074s.172-.053.263-.077l.082-.019c.053-.013.106-.027.162-.037s.117-.024.175-.035a.982.982,0,0,1,.122-.021.778.778,0,0,1,.077-.013.2.2,0,0,1,.053-.008c.077-.013.157-.021.236-.029a6,6,0,0,1,6.3,4.039c-.04-.188-.088-.382-.141-.579.13-.146.271-.326.435-.48a48.656,48.656,0,0,0,14.6-24.852,42.79,42.79,0,0,0,1.115-7.244,6.37,6.37,0,0,1,.17-.852V45.874c-.122-.945-.255-1.887-.364-2.834M74.929,57.606c-.056-.016-.111-.037-.167-.058a.147.147,0,0,1-.037-.016,2.236,2.236,0,0,1-.252-.1.263.263,0,0,1-.056-.024c-.077-.032-.151-.069-.226-.106a.656.656,0,0,1-.069-.037c-.066-.032-.133-.069-.2-.106a.939.939,0,0,1-.1-.058c-.056-.032-.109-.063-.162-.1-.029-.016-.058-.034-.088-.053-.066-.045-.135-.09-.2-.138a5.887,5.887,0,0,1-1.03-.942c-.056-.061-.106-.122-.157-.186a.056.056,0,0,1-.016-.021c-.058-.074-.117-.149-.172-.226a.084.084,0,0,1-.019-.029c-.061-.082-.117-.167-.172-.254s-.111-.181-.165-.276-.1-.188-.151-.284c.005.013.011.024.016.034.021.042.042.085.064.125a6.11,6.11,0,0,0,.451.765A89.3,89.3,0,0,1,53.672,73.043C47.03,77.78,36.391,83.3,31.97,84.393c-.953-.963-1.1-1.438-2.41-2.046.088.045.172.09.257.141a1.34,1.34,0,0,1,.117.069.052.052,0,0,1,.021.011l.056.035c.021.013.04.027.058.037a.1.1,0,0,1,.027.019c.045.029.09.056.133.088.1.069.2.141.3.22a1.586,1.586,0,0,1,.13.1c.074.061.149.122.218.188s.135.122.2.188a.126.126,0,0,1,.027.027c.061.061.125.127.183.194s.127.143.188.218.122.149.178.226c.042.056.085.109.122.167s.069.1.1.154.069.1.1.157a5.913,5.913,0,0,1,.5,1.027c.013.035.027.069.037.106a.079.079,0,0,1,.011.027c.016.045.029.088.045.135.029.088.056.178.077.268.011.037.021.072.029.109.019.077.037.154.053.234s.037.186.05.279c0,.024.008.048.011.072.013.082.021.165.029.247a5.851,5.851,0,0,1,.032.613c0,.085,0,.173-.008.257a.009.009,0,0,0,0-.005c.027-.215.053-.43.082-.655A93.139,93.139,0,0,0,74.316,57.452c.387.1.727.207,1.062.292-.1-.024-.191-.053-.284-.082a1.714,1.714,0,0,1-.165-.056M41.5,38.838a4.626,4.626,0,0,1,.1.5.62.62,0,0,1,.011.069c.016.1.029.2.037.3.008.074.013.154.019.231.008.117.011.234.011.353,0,.093,0,.183-.008.273a.5.5,0,0,1-.005.09v0a.037.037,0,0,1,0,.024,2.107,2.107,0,0,1-.019.223c-.008.088-.019.173-.032.257l-.016.106c-.013.082-.029.164-.045.247l-.024.1a.428.428,0,0,1-.013.056,2.392,2.392,0,0,1-.061.236c-.037.143-.082.281-.133.419-.021.058-.042.117-.066.172a.665.665,0,0,1-.029.077,8.941,8.941,0,0,0,.441-1.128A88.813,88.813,0,0,1,71.028,50.4a8.277,8.277,0,0,0-.117.862A5.966,5.966,0,0,1,72.516,47.8a92.674,92.674,0,0,0-30.993-9.386c-.135-.223-.268-.438-.4-.655a5.753,5.753,0,0,1,.345.948c.013.042.024.088.035.13M75.093,57.662a1.714,1.714,0,0,1-.165-.056c-.056-.016-.111-.037-.167-.058a.147.147,0,0,1-.037-.016,2.236,2.236,0,0,1-.252-.1.263.263,0,0,1-.056-.024c-.077-.032-.151-.069-.226-.106a.656.656,0,0,1-.069-.037c-.066-.032-.133-.069-.2-.106a.939.939,0,0,1-.1-.058c-.056-.032-.109-.063-.162-.1-.029-.016-.058-.034-.088-.053-.066-.045-.135-.09-.2-.138a5.887,5.887,0,0,1-1.03-.942c-.056-.061-.106-.122-.157-.186a.056.056,0,0,1-.016-.021c-.058-.074-.117-.149-.172-.226a.084.084,0,0,1-.019-.029c-.061-.082-.117-.167-.172-.254s-.111-.181-.165-.276-.1-.188-.151-.284c.005.013.011.024.016.034.021.042.042.085.064.125a6.11,6.11,0,0,0,.451.765A89.3,89.3,0,0,1,53.672,73.043C47.03,77.78,36.391,83.3,31.97,84.393c-.953-.963-1.1-1.438-2.41-2.046.088.045.172.09.257.141a1.34,1.34,0,0,1,.117.069.052.052,0,0,1,.021.011l.056.035c.021.013.04.027.058.037a.1.1,0,0,1,.027.019c.045.029.09.056.133.088.1.069.2.141.3.22a1.586,1.586,0,0,1,.13.1c.074.061.149.122.218.188s.135.122.2.188a.126.126,0,0,1,.027.027c.061.061.125.127.183.194s.127.143.188.218.122.149.178.226c.042.056.085.109.122.167s.069.1.1.154.069.1.1.157a5.913,5.913,0,0,1,.5,1.027c.013.035.027.069.037.106a.079.079,0,0,1,.011.027c.016.045.029.088.045.135.029.088.056.178.077.268.011.037.021.072.029.109.019.077.037.154.053.234s.037.186.05.279c0,.024.008.048.011.072.013.082.021.165.029.247a5.851,5.851,0,0,1,.032.613c0,.085,0,.17-.005.252.027-.215.053-.43.082-.655A93.139,93.139,0,0,0,74.316,57.452c.387.1.727.207,1.062.292-.1-.024-.191-.053-.284-.082M72.516,47.8a92.674,92.674,0,0,0-30.993-9.386c-.135-.223-.268-.438-.4-.655a5.753,5.753,0,0,1,.345.948c.013.042.024.088.035.13a4.626,4.626,0,0,1,.1.5.62.62,0,0,1,.011.069c.016.1.029.2.037.3.008.074.013.154.019.231.008.117.011.234.011.353,0,.093,0,.183-.008.273,0,.029,0,.058-.005.09v0a.037.037,0,0,1,0,.024,2.107,2.107,0,0,1-.019.223c-.008.088-.019.173-.032.257l-.016.106c-.013.082-.029.164-.045.247l-.024.1a.428.428,0,0,1-.013.056c-.019.08-.04.156-.061.236-.037.143-.082.281-.133.419-.021.058-.042.117-.066.172a.665.665,0,0,1-.029.077,8.941,8.941,0,0,0,.441-1.128A88.813,88.813,0,0,1,71.028,50.4a8.277,8.277,0,0,0-.117.862A5.966,5.966,0,0,1,72.516,47.8M87.98,14.565l-3.216-2.988A9.987,9.987,0,0,0,85,10.467,6.005,6.005,0,0,1,73.09,9.358a5.894,5.894,0,0,1,.048-.754c-.035.231-.069.475-.109.735a68.731,68.731,0,0,0-15.315,6.7q-.322-.223-.629-.414A6,6,0,0,1,59.3,19.49c-.008-.284-.016-.581-.016-.9,1.659-1,3.374-1.915,5.421-2.887a65.159,65.159,0,0,1,9.074-3.455,6.067,6.067,0,0,0,4.188,3.028A6,6,0,0,0,82.98,14c.9.836,1.786,1.664,2.7,2.516a8.3,8.3,0,0,0-.547,1.069A6,6,0,0,1,94.622,15.6c-1.813-1.77-4.1-1.974-6.642-1.032M21.05,7.774a5.975,5.975,0,0,1,1.722-2.829A5.2,5.2,0,0,0,21.05,7.774m3.97,7.308q-.072-.02-.143-.048a6.148,6.148,0,0,1-1.112-.517,1.721,1.721,0,0,1-.165-.1q-.084-.052-.167-.111c-.165-.114-.324-.236-.475-.364-.058-.05-.114-.1-.17-.151s-.125-.117-.186-.178a.881.881,0,0,1-.069-.072c-.082-.082-.162-.167-.234-.255a1.705,1.705,0,0,1-.141-.17c-.032-.04-.066-.08-.1-.119-.064-.08-.122-.162-.178-.247s-.133-.2-.194-.3a5.625,5.625,0,0,1-.334-.64c-.05-.111-.1-.22-.138-.334.04.17.085.34.135.515C20.317,13,19.269,14.01,18.242,15.042c-.488.491-.955,1.008-1.4,1.542a1.382,1.382,0,0,0,.072,2.033,1.406,1.406,0,0,0,2.11-.032C20.314,17.3,21.586,16,22.867,14.711c.141-.141.3-.257.446-.379a7.273,7.273,0,0,0,1.85.8l-.143-.045m-3.912,74.4a5.329,5.329,0,0,0,1.913,2.85,6.008,6.008,0,0,1-1.913-2.85m5.732,4.222a5.964,5.964,0,0,1-3.118-.873,5.423,5.423,0,0,0,4.45.724,5.941,5.941,0,0,1-1.332.149M74.87,4.971Q53.06-5.088,31.259,5.221a6.126,6.126,0,0,0-4.36-1.9,6.042,6.042,0,0,0-2.12.4A6.006,6.006,0,0,1,31.086,13.6a7.848,7.848,0,0,0,1.186-1.457c3.384.624,11.682,4.2,15.219,6.573a6.389,6.389,0,0,0,.446,4.35,70.032,70.032,0,0,0-10.49,11.39,10.853,10.853,0,0,0-1.322-.157,5.975,5.975,0,0,1,4.31,2.33c-.13-.215-.263-.432-.4-.653a63.979,63.979,0,0,1,9.877-10.655,7.911,7.911,0,0,0,1.093.531,6,6,0,0,1,2.338-11.536,6.134,6.134,0,0,1,.993.082c-1.826-.417-3.468.133-5.392,1.653A69.021,69.021,0,0,0,32.856,9.13c-.037-.438-.069-.793-.1-1.125,11.578-6.459,28.5-6.722,40.518-.313-.029.191-.058.385-.088.584a5.985,5.985,0,0,1,2.277-3.7c-.2.122-.4.255-.594.4M41.123,37.761a5.753,5.753,0,0,1,.345.948c.013.042.024.088.035.13a4.626,4.626,0,0,1,.1.5.62.62,0,0,1,.011.069c.016.1.029.2.037.3.008.077.013.154.019.231.008.117.011.234.011.353,0,.093,0,.183-.008.273,0,.029,0,.058-.005.09v0a.037.037,0,0,1,0,.024c-.005.074-.011.149-.019.223s-.019.173-.032.257l-.016.106c-.013.082-.029.164-.045.247-.008.035-.013.069-.024.1a.428.428,0,0,1-.013.056c-.019.08-.04.156-.061.236-.037.143-.082.281-.133.419-.021.058-.042.117-.066.172a.665.665,0,0,1-.029.077,8.941,8.941,0,0,0,.441-1.128A88.813,88.813,0,0,1,71.028,50.4a8.277,8.277,0,0,0-.117.862A5.966,5.966,0,0,1,72.516,47.8a92.674,92.674,0,0,0-30.993-9.386c-.135-.223-.268-.438-.4-.655m-10.355,5.99c.165.27.342.549.523.852a68.573,68.573,0,0,0-6.764,37.46c-.6.369-1.069.663-1.542.953C13.669,75.184,7.526,59.639,7.752,48.543a7.511,7.511,0,0,0,3.219-2.131,6.041,6.041,0,0,0,1.237-3.71,159.5,159.5,0,0,1,17.348-1.961c.106.34.2.676.292,1.006a6.026,6.026,0,0,1,.847-4.814,6.411,6.411,0,0,0-.478.814,96.638,96.638,0,0,0-18.529,2.007l-.7-.717A6,6,0,1,1,.4,44.287a.706.706,0,0,0,.024.109,5.857,5.857,0,0,0,3.391,3.79c.271.12.547.226.844.348a49.6,49.6,0,0,0,16.5,37.03c-.04.18-.077.361-.109.536a6.006,6.006,0,0,1,7.571-4.132c-.308-.117-.661-.236-1.067-.369A64.158,64.158,0,0,1,33.92,46.126a7.207,7.207,0,0,0,2.67.1,6.145,6.145,0,0,1-.916.069,5.994,5.994,0,0,1-4.907-2.545m2.569-8.994a5.907,5.907,0,0,1,1.128-.351,5.123,5.123,0,0,0-1.128.351m-.1.045c.032-.016.066-.032.1-.045-.027.01-.056.021-.082.034a.068.068,0,0,0-.019.011M75.093,57.662a1.714,1.714,0,0,1-.165-.056c-.056-.016-.111-.037-.167-.058a.147.147,0,0,1-.037-.016,2.236,2.236,0,0,1-.252-.1.263.263,0,0,1-.056-.024c-.077-.032-.151-.069-.226-.106a.656.656,0,0,1-.069-.037c-.066-.032-.133-.069-.2-.106a.939.939,0,0,1-.1-.058c-.056-.032-.109-.063-.162-.1-.029-.016-.058-.034-.088-.053-.066-.045-.135-.09-.2-.138a5.887,5.887,0,0,1-1.03-.942c-.056-.061-.106-.122-.157-.186a.056.056,0,0,1-.016-.021c-.058-.074-.117-.149-.172-.226a.084.084,0,0,1-.019-.029c-.061-.082-.117-.167-.172-.254s-.111-.181-.165-.276-.1-.188-.151-.284c.005.013.011.024.016.034.021.042.042.085.064.125a6.11,6.11,0,0,0,.451.765A89.3,89.3,0,0,1,53.672,73.043C47.03,77.78,36.391,83.3,31.97,84.393c-.953-.963-1.1-1.438-2.41-2.046.088.045.172.09.257.141a1.34,1.34,0,0,1,.117.069c.032.019.066.04.1.061a.17.17,0,0,1,.037.021.1.1,0,0,1,.027.019c.045.029.09.056.133.088.1.069.2.141.3.22a1.586,1.586,0,0,1,.13.1c.074.061.149.122.218.188s.135.125.2.188a.126.126,0,0,1,.027.027c.061.064.122.127.183.194s.127.143.188.218.122.149.178.226c.042.056.082.111.122.167s.069.1.1.154.069.1.1.157a5.913,5.913,0,0,1,.5,1.027c.013.035.027.069.037.106a.079.079,0,0,1,.011.027c.016.045.032.09.045.135.029.088.056.178.077.268.011.037.021.072.029.109.019.077.037.154.053.234s.037.186.05.279c0,.024.008.048.011.072.011.082.021.165.029.247a5.851,5.851,0,0,1,.032.613c0,.085,0,.173-.008.257a.009.009,0,0,0,0-.005c.027-.215.053-.43.082-.655A93.139,93.139,0,0,0,74.316,57.452c.387.1.727.207,1.062.292-.1-.024-.191-.053-.284-.082m4.949,36.319a6,6,0,0,1-5.971-5.371,8.6,8.6,0,0,0,.122.958c-12.9,7.019-29.6,6.664-41.571.077l.08-.637A6.01,6.01,0,0,1,30.2,92.683c.212-.122.425-.26.64-.406,14.949,7.221,29.9,7.258,44.96-.005A6.044,6.044,0,0,0,80.2,94a5.9,5.9,0,0,0,1.629-.289,6.025,6.025,0,0,1-1.786.271M13.993,22.534a1.329,1.329,0,0,0-1.847.379,20.737,20.737,0,0,0-1.133,1.863,47.551,47.551,0,0,0-4.5,10.875c-.077.284-.178.56-.276.865-.265.053-.517.114-.77.152a5.592,5.592,0,0,1,.7-.043,5.965,5.965,0,0,1,3.726,1.3c-.234-.239-.467-.48-.711-.73.106-.4.236-.971.406-1.531a46.5,46.5,0,0,1,4.535-10.325,7.941,7.941,0,0,0,.539-.945,1.425,1.425,0,0,0-.677-1.858M1.258,39.183a6.01,6.01,0,0,1,2.853-2.195,5.4,5.4,0,0,0-2.853,2.195M.17,42.631a5.944,5.944,0,0,1,.125-1.218A.272.272,0,0,1,0,41.5v2.385c.18-.032.273.011.324.09A5.933,5.933,0,0,1,.17,42.631m95.976-24.9A6.027,6.027,0,0,1,96.14,22.4a5.469,5.469,0,0,0,.005-4.665M84.3,92.205a5.117,5.117,0,0,0,1.526-2.622A5.942,5.942,0,0,1,84.3,92.205" transform="translate(0 0)" fill="#e6716e"/><path d="M190.352,59.14s0-.006,0-.008a5.994,5.994,0,0,0-2.211-3.864c-.005-.006-.011-.011-.016-.011a8.862,8.862,0,0,0-2.72-1.21.009.009,0,0,0-.008,0,6.164,6.164,0,0,0-.993-.082A6,6,0,0,0,182.067,65.5c.058.027.119.05.18.072a6.142,6.142,0,0,0,5.369-.531h0a6.024,6.024,0,0,0,2.338-2.778v0a13.055,13.055,0,0,0,.364-1.693,10.9,10.9,0,0,0,.032-1.425m-6,3.858a3.11,3.11,0,0,1-3.031-3.054,3.062,3.062,0,0,1,3-3.055,2.991,2.991,0,0,1,3.06,2.98A3.037,3.037,0,0,1,184.355,63" transform="translate(-131.057 -39.642)" fill="#f7cd22"/><path d="M84.716,12.633A5.973,5.973,0,0,0,82.651,13c-.13.048-.26.1-.385.159a6.634,6.634,0,0,0-1.022.594c-.18.128-.35.258-.51.4a.844.844,0,0,0-.09.08,5.973,5.973,0,0,0-1.722,2.829,8.06,8.06,0,0,0,.17,3.694v0a6.021,6.021,0,0,0,4.121,3.7c.151.037.3.072.456.1.053.01.106.018.157.027a.017.017,0,0,0,.011,0l.061.008a5.886,5.886,0,0,0,.817.056,5.781,5.781,0,0,0,.613-.032c.1-.01.2-.021.3-.037s.165-.027.247-.045a1.374,1.374,0,0,0,.154-.032,1.247,1.247,0,0,0,.135-.032c.037-.008.077-.019.114-.029a.01.01,0,0,0,.008,0c.072-.019.143-.037.212-.061.034-.011.069-.021.1-.034.106-.035.212-.074.318-.117a2.072,2.072,0,0,0,.223-.093,6.444,6.444,0,0,0,1.322-.807c.034-.029.066-.056.1-.08a4.55,4.55,0,0,0,.393-.358,6,6,0,0,0-4.243-10.251m-.027,9.084A3.084,3.084,0,0,1,81.7,18.641a3.019,3.019,0,1,1,6.037.053,3.074,3.074,0,0,1-3.044,3.022" transform="translate(-57.873 -9.281)" fill="#f8d7d2"/><path d="M287.375,17.834c-.008-.061-.016-.122-.027-.183,0,0,0,0,0,0a5.9,5.9,0,0,0-.788-2.126c-.027-.045-.056-.09-.088-.135a6.742,6.742,0,0,0-2.006-1.884,6.063,6.063,0,0,0-.8-.435.1.1,0,0,0-.029-.013,5.951,5.951,0,0,0-2.213-.422,6.343,6.343,0,0,0-.9.066.277.277,0,0,0-.048.01,8.173,8.173,0,0,0-2.678,1.146,5.985,5.985,0,0,0-2.277,3.7.047.047,0,0,0,0,.027c-.013.077-.027.159-.04.241,0,0,0,0,0,.005a.409.409,0,0,0-.008.056,5.9,5.9,0,0,0-.048.754,6.005,6.005,0,0,0,11.907,1.109.172.172,0,0,0,.008-.053,7.21,7.21,0,0,0,.04-1.86m-5.995,3.84a2.978,2.978,0,0,1-2.975-3.155,3.022,3.022,0,0,1,6.04.2,2.946,2.946,0,0,1-3.065,2.959" transform="translate(-202.33 -9.281)" fill="#0e2340"/><path d="M330.377,56.641l-.008-.013a7.119,7.119,0,0,0-.831-1.351,6.938,6.938,0,0,0-.682-.77l0,0a6,6,0,0,0-9.487,1.988.283.283,0,0,0-.021.05,5.938,5.938,0,0,0-.337,3.758,6.04,6.04,0,0,0,1.85,3.161c.053.05.106.1.162.141a6.006,6.006,0,0,0,9.1-1.77,5.315,5.315,0,0,0,.252-.525,6.027,6.027,0,0,0,.005-4.665M324.876,62a3.038,3.038,0,1,1,2.975-3.06A3,3,0,0,1,324.876,62" transform="translate(-234.232 -38.908)" fill="#eea7a5"/><path d="M278.952,177.641c-.024-.093-.048-.186-.074-.279s-.056-.186-.088-.276c-.016-.051-.034-.1-.053-.152-.064-.167-.133-.332-.21-.491a6,6,0,0,0-9.254-2.011c-.005,0-.008.008-.013.013-.141.154-.3.324-.462.5l-.045-.024a5.966,5.966,0,0,0-1.606,3.461.017.017,0,0,0,0,.016,6.458,6.458,0,0,0,.5,3.137c.024.056.05.111.08.17.048.1.1.191.151.284s.106.186.165.276.111.173.172.255a.091.091,0,0,0,.019.029c.056.077.114.151.173.226a.054.054,0,0,0,.016.021c.05.064.1.125.157.186a5.894,5.894,0,0,0,1.03.942c.064.048.133.093.2.138.029.019.058.037.088.053.053.037.106.069.162.1a.936.936,0,0,0,.1.058c.064.037.13.074.2.106a.572.572,0,0,0,.069.037c.074.037.149.074.226.106a.264.264,0,0,0,.056.024,2.292,2.292,0,0,0,.252.1.157.157,0,0,0,.037.016c.056.021.111.042.167.058s.109.04.165.056c.093.029.188.058.284.082s.194.045.292.066a6.008,6.008,0,0,0,7.181-5.27c.008-.08.016-.162.019-.244a6.356,6.356,0,0,0-.154-1.776m-5.841,4.472a3.066,3.066,0,0,1-.021-6.13,3.065,3.065,0,0,1,.021,6.13" transform="translate(-196.237 -127.121)" fill="#f7cd22"/><path d="M123.8,134.864c-.005-.077-.011-.154-.019-.231-.008-.1-.021-.2-.037-.3a.619.619,0,0,0-.011-.069,4.633,4.633,0,0,0-.1-.5c-.011-.042-.021-.087-.035-.13a5.754,5.754,0,0,0-.345-.948.074.074,0,0,0-.008-.013c-.226-.374-.451-.74-.679-1.115a5.975,5.975,0,0,0-4.31-2.33.013.013,0,0,0-.013,0h0s0,0-.005,0a7.438,7.438,0,0,0-1.032.014.363.363,0,0,0-.058.005c-.072.005-.143.016-.212.026-.04.005-.082.011-.122.019q-.107.016-.215.04a5.909,5.909,0,0,0-1.128.351,1.086,1.086,0,0,0-.1.045.527.527,0,0,0-.056.026c-.058.027-.117.053-.173.083a6.284,6.284,0,0,0-1.123.724c-.058.045-.114.093-.17.143s-.09.077-.133.12a1.125,1.125,0,0,0-.1.1l-.074.075c-.061.061-.119.122-.178.186s-.127.143-.188.217-.122.149-.178.226-.114.156-.17.236a6.026,6.026,0,0,0-.847,4.814.009.009,0,0,0,0,.008,7.747,7.747,0,0,0,.342.961,8.434,8.434,0,0,0,.557,1.008.082.082,0,0,0,.019.027,5.994,5.994,0,0,0,4.907,2.545,6.147,6.147,0,0,0,.916-.069c.1-.016.2-.032.295-.053a5.984,5.984,0,0,0,1.128-.35c.08-.032.157-.069.234-.1s.167-.082.249-.127c.04-.021.08-.042.119-.066.061-.035.122-.069.18-.106s.117-.071.175-.111a6.6,6.6,0,0,0,2.248-2.707.1.1,0,0,0,.011-.024.664.664,0,0,0,.029-.077c.024-.055.045-.114.066-.172.05-.138.1-.276.133-.419.021-.08.042-.157.061-.236a.426.426,0,0,0,.013-.056c.011-.034.016-.069.024-.1.016-.082.032-.164.045-.247l.016-.106c.013-.085.024-.17.032-.257s.013-.149.019-.223a.037.037,0,0,0,0-.024v0c0-.032.005-.061.005-.09.005-.09.008-.18.008-.273,0-.119,0-.236-.011-.353m-6.011,3.384a2.991,2.991,0,0,1-3.031-3.014,3.047,3.047,0,0,1,6.093-.064,2.985,2.985,0,0,1-3.062,3.078" transform="translate(-82.131 -94.927)" fill="#f7cd22"/><path d="M11.457,140.424s0-.005-.008-.008l-1.072-1.1c0-.006,0-.006-.005-.006a5.963,5.963,0,0,0-3.726-1.3,5.592,5.592,0,0,0-.7.043.022.022,0,0,0-.013,0,7.644,7.644,0,0,0-1.165.257c-.061.019-.122.04-.183.061a6.01,6.01,0,0,0-2.853,2.195c-.013.016-.024.035-.034.05a7.3,7.3,0,0,0-.815,1.842,1.225,1.225,0,0,1-.114.337,6,6,0,0,0,.029,2.566.832.832,0,0,1,.08.3s0,0,0,0a6,6,0,1,0,10.583-5.249m-4.846,6.65A3.025,3.025,0,0,1,3.636,144a3.085,3.085,0,0,1,3.023-3.046A2.991,2.991,0,0,1,9.652,144.1a2.933,2.933,0,0,1-3.041,2.972" transform="translate(-0.47 -101.387)" fill="#f8d7d2"/><path d="M90.648,313.244c-.008-.082-.019-.165-.029-.247,0-.024-.008-.048-.011-.072-.013-.093-.032-.186-.05-.279s-.035-.157-.053-.234c-.008-.037-.019-.072-.029-.109-.021-.09-.048-.18-.077-.268-.013-.045-.029-.09-.045-.135a.079.079,0,0,0-.011-.027c-.011-.037-.024-.072-.037-.106a5.913,5.913,0,0,0-.5-1.027c-.032-.053-.064-.106-.1-.157s-.066-.1-.1-.154-.08-.112-.122-.167c-.056-.077-.117-.154-.178-.226s-.125-.149-.188-.218-.122-.13-.183-.194a.127.127,0,0,0-.027-.027c-.064-.064-.13-.127-.2-.188s-.143-.127-.218-.188a1.591,1.591,0,0,0-.13-.1c-.1-.08-.2-.151-.3-.22-.042-.032-.088-.058-.133-.088a.1.1,0,0,0-.027-.019.17.17,0,0,0-.037-.021c-.032-.021-.066-.042-.1-.061a1.35,1.35,0,0,0-.117-.069c-.085-.05-.17-.1-.257-.141a.233.233,0,0,0-.045-.021c-.236-.109-.507-.22-.828-.337a.406.406,0,0,0-.061-.021,6.006,6.006,0,0,0-7.571,4.132,7.647,7.647,0,0,0,.04,3.336.278.278,0,0,0,.013.05,6.008,6.008,0,0,0,1.913,2.85c.106.088.215.17.326.249.061.045.125.09.188.133,0,0,0,0,.005,0a6.016,6.016,0,0,0,4.631.839.314.314,0,0,0,.048-.013,7.973,7.973,0,0,0,1.977-.862,6.01,6.01,0,0,0,2.505-3.675.052.052,0,0,0,0-.021c.045-.334.088-.671.133-1.022a0,0,0,0,0,0-.005c.005-.085.008-.172.008-.257a5.849,5.849,0,0,0-.032-.613m-6.021,3.678a3.066,3.066,0,0,1,.143-6.13,3.112,3.112,0,0,1,2.924,3.153,3.031,3.031,0,0,1-3.068,2.978" transform="translate(-57.835 -226.156)" fill="#0e2340"/><path d="M290.71,312.953a6,6,0,0,0-9.928-2.311c-.074.074-.146.149-.215.228a6.7,6.7,0,0,0-.586.778,6.08,6.08,0,0,0-.926,3.853.051.051,0,0,0,0,.021,6.008,6.008,0,0,0,7.757,5.1q.084-.024.167-.056a6.236,6.236,0,0,0,1.605-.862,6.964,6.964,0,0,0,.685-.571.07.07,0,0,0,.013-.016,5.943,5.943,0,0,0,1.526-2.622.1.1,0,0,0,.011-.037,7.9,7.9,0,0,0-.111-3.506m-5.695,4.962a2.983,2.983,0,0,1-3-3.023,3.014,3.014,0,1,1,6.027.021,2.992,2.992,0,0,1-3.025,3" transform="translate(-204.986 -226.912)" fill="#f7cd22"/></svg>