<svg xmlns="http://www.w3.org/2000/svg" width="106.74" height="106.741" viewBox="0 0 106.74 106.741"><g transform="translate(0 0)"><path d="M118.3,204.968c-7.575-5.418-7.872-15.032-2.6-20.8a13.8,13.8,0,1,1,17.971,20.7c1.716.9,3.575,1.683,5.234,2.774A23.51,23.51,0,0,1,149.817,225.2c.38,3.138.085,6.287.185,9.491H101.783v-.976c0-1.972-.008-3.944,0-5.917A24.149,24.149,0,0,1,117.413,205.3l.892-.334m7.569-21.87a10.327,10.327,0,1,0,10.34,10.313,10.357,10.357,0,0,0-10.34-10.313m-6.224,25.149c.209,1.4,5.868,18.314,6.352,18.941l6.222-18.849a18.765,18.765,0,0,0-12.574-.093m22.224,6.7c-.178,1-.378,1.871-.478,2.758a1.707,1.707,0,0,1-.9,1.354c-1.087.681-2.137,1.42-3.265,2.177l3.132,3.2-6.787,6.79H146.5c.436-6.734-.9-11.943-4.623-16.278M118.25,231.267l-6.948-6.947,3.265-3.071c-1.132-.761-2.149-1.488-3.211-2.142a1.868,1.868,0,0,1-.995-1.528c-.085-.852-.3-1.692-.477-2.618-3.42,3.528-5.552,11.324-4.516,16.305Zm13.632-10.9.161.168c1.9-1.267,3.8-2.53,5.693-3.808a.9.9,0,0,0,.388-.476c.277-1.467.52-2.94.788-4.5l-3.438-2.254-3.592,10.865m-19.025-8.606c.239,1.379.487,2.572.639,3.778a1.944,1.944,0,0,0,1,1.522c1.484.936,2.928,1.936,4.392,2.906.283.187.579.354,1.091.666l-3.673-11.123-3.449,2.252m3.572,12.741c2.153,2.436,6.247,6.4,7.066,6.773l-3.445-10.431-3.621,3.657m15.317-3.6a88.794,88.794,0,0,0-3.262,10.21l6.747-6.732-3.485-3.478" transform="translate(-72.517 -128.002)" fill="#dd3944"/><path d="M39.874,88.065l-5.788,5.774L49.3,108.485,36.638,121.141,22.093,106.029l-5.837,5.83-5.942-29.7,29.559,5.91M14.707,86.549l3.66,18.3,3.774-3.725c4.932,5.057,9.735,10.152,14.531,15.067l7.68-7.688L29.162,93.876,32.968,90.2,14.707,86.549" transform="translate(-7.349 -58.534)" fill="#f8d7d2"/><path d="M225.662,108.434,240.69,93.968l-5.824-5.83L264.548,82.2c-1.979,9.9-3.933,19.674-5.9,29.529a10.684,10.684,0,0,1-1.99-1.808c-.654-.612-1.275-1.26-1.9-1.9s-1.25-1.279-1.944-1.99l-14.491,15.057-12.654-12.659m27.186-7.406,3.671,3.784,3.638-18.217-18.3,3.664,3.752,3.759-15.1,14.534,7.707,7.676,14.63-15.2" transform="translate(-160.781 -58.567)" fill="#f8d7d2"/><path d="M134.886,53.24V32.646h-8.348L143.527,7.163l16.984,25.473h-8.33v20.6ZM154.08,29.2,143.528,13.373l-10.57,15.856h5.423V49.793h10.36V29.2Z" transform="translate(-90.156 -5.104)" fill="#f8d7d2"/><path d="M345.669,226.73a5.161,5.161,0,1,1-5.1-5.163,5.187,5.187,0,0,1,5.1,5.163m-3.449,0a1.713,1.713,0,1,0-1.715,1.711,1.728,1.728,0,0,0,1.715-1.711" transform="translate(-238.929 -157.863)" fill="#0e2340"/><path d="M263.6,237.138V233.76h3.35v3.362c-.53.005-1.085.013-1.639.016-.533,0-1.066,0-1.711,0" transform="translate(-187.813 -166.551)" fill="#0e2340"/><rect width="3.326" height="3.307" transform="translate(82.708 67.203)" fill="#0e2340"/><rect width="3.312" height="3.32" transform="translate(89.607 67.215)" fill="#0e2340"/><path d="M5.2,231.891a5.162,5.162,0,1,1,5.122-5.149A5.184,5.184,0,0,1,5.2,231.891m-.082-6.875a1.714,1.714,0,1,0,1.755,1.67,1.729,1.729,0,0,0-1.755-1.67" transform="translate(-0.001 -157.864)" fill="#0e2340"/><rect width="3.326" height="3.307" transform="translate(27.593 67.222)" fill="#0e2340"/><rect width="3.326" height="3.307" transform="translate(13.819 67.222)" fill="#0e2340"/><rect width="3.329" height="3.31" transform="translate(20.724 67.201)" fill="#0e2340"/><path d="M340.532,0a5.162,5.162,0,1,1-5.186,5.082A5.183,5.183,0,0,1,340.532,0m1.687,5.116a1.713,1.713,0,1,0-1.668,1.758,1.73,1.73,0,0,0,1.668-1.758" transform="translate(-238.928)" fill="#0e2340"/><path d="M327.68,34.519l-2.2,2.11-2.3-2.289,2.236-2.318,2.256,2.5" transform="translate(-230.267 -22.815)" fill="#0e2340"/><path d="M308.715,49.43l2.154,2.161L308.576,53.9l-2.13-2.345,2.269-2.124" transform="translate(-218.338 -35.218)" fill="#0e2340"/><path d="M291.778,66.089l2.275,2.322L291.919,70.6l-2.287-2.432,2.146-2.076" transform="translate(-206.359 -47.087)" fill="#0e2340"/><path d="M340.668,335.347a5.163,5.163,0,1,1-5.319,4.945,5.186,5.186,0,0,1,5.319-4.945m-.205,6.873a1.714,1.714,0,1,0-1.668-1.758,1.733,1.733,0,0,0,1.668,1.758" transform="translate(-238.929 -238.928)" fill="#0e2340"/><path d="M310.49,308.563l-2.067,2.074-2.4-2.257,2.324-2.267,2.143,2.451" transform="translate(-218.037 -218.1)" fill="#0e2340"/><path d="M325.495,327.827l-2.109-2.3,2.121-2.138,2.378,2.259-2.389,2.181" transform="translate(-230.407 -230.408)" fill="#0e2340"/><path d="M292.07,289.94,294.009,292l-2.2,2.223-2.146-2.108,2.41-2.173" transform="translate(-206.378 -206.578)" fill="#0e2340"/><path d="M5.118,0A5.162,5.162,0,1,1,0,5.151,5.181,5.181,0,0,1,5.118,0M6.875,5.182A1.713,1.713,0,1,0,5.141,6.874,1.729,1.729,0,0,0,6.875,5.182" transform="translate(-0.001 0)" fill="#0e2340"/><path d="M32.183,34.388l2.339-2.381,2.162,2.413-2.226,2.23-2.275-2.261" transform="translate(-22.93 -22.804)" fill="#0e2340"/><path d="M49.077,51.327l2.293-2.266,2.356,2.311-2.412,2.307-2.237-2.351" transform="translate(-34.967 -34.955)" fill="#0e2340"/><path d="M68.158,70.544l-2-1.982,2.323-2.372,2.109,2.175-2.436,2.179" transform="translate(-47.139 -47.159)" fill="#0e2340"/><path d="M5.184,345.669a5.162,5.162,0,1,1,5.14-5.132,5.185,5.185,0,0,1-5.14,5.132m1.691-5.207a1.713,1.713,0,1,0-1.669,1.758,1.73,1.73,0,0,0,1.669-1.758" transform="translate(-0.001 -238.928)" fill="#0e2340"/><path d="M34.123,327.855l-2.195-2.191,2.507-2.235,2.053,2.174-2.366,2.252" transform="translate(-22.748 -230.438)" fill="#0e2340"/><path d="M53.72,308.5l-2.329,2.263-2.266-2.294,2.331-2.331L53.72,308.5" transform="translate(-35 -218.12)" fill="#0e2340"/><path d="M68.436,289.668l2.3,2.286-2.212,2.035-2.277-2.264,2.188-2.057" transform="translate(-47.201 -206.384)" fill="#0e2340"/></g></svg>