<svg xmlns="http://www.w3.org/2000/svg" xmlns:xlink="http://www.w3.org/1999/xlink" width="109.007" height="110.305" viewBox="0 0 109.007 110.305"><defs><clipPath id="a"><rect width="109.007" height="110.305" fill="none"/></clipPath></defs><g clip-path="url(#a)"><path d="M63.9,122.712a9.308,9.308,0,0,0-10.136,3.177c-.305.4-.579.818-.953,1.348-2.146-4.79-4.257-9.508-6.4-14.3a2.465,2.465,0,0,0-3.26-1.388c-.265.112-.527.222-.792.331l-3.687,1.645-.389.176q-6.774,3.029-13.555,6.054l-2.906,1.3-.544,3.076a3.84,3.84,0,0,1,.576-.288q10.3-4.632,20.617-9.249c1.4-.625,1.636-.53,2.267.91q3.042,6.952,6.077,13.9a8.858,8.858,0,0,0,.446.979,1.752,1.752,0,0,0,3.085-.014,8.365,8.365,0,0,0,.409-.994,6.99,6.99,0,0,1,6.711-4.165,6.571,6.571,0,0,1,6.014,5.038c.965,3.883-1.8,7.7-5.294,7.872-1.143.055-2.29.037-3.436.046-.213,0-.426-.049-.642-.058a1.952,1.952,0,0,0-2.022,2.725c.115.34.282.66.429.988l5.547,12.374c.086.2.187.389.259.59a1.6,1.6,0,0,1-.93,2.284c-2.316,1.063-4.643,2.1-6.967,3.14-1.861.835-3.724,1.665-5.824,2.6a9.549,9.549,0,0,0-1.9-8.177,8.992,8.992,0,0,0-5.023-3.142,9.23,9.23,0,0,0-10.392,4.686c-1.809,3.569-2.137,8.065,3.73,12.708-4.793,2.152-9.519,4.271-14.324,6.429a7.963,7.963,0,0,1-.421-.743c-5.775-12.9-11.524-25.807-17.342-38.688a3.021,3.021,0,0,1,2.293-4.5l-.789-2.641a2.161,2.161,0,0,1-.3.228,5.411,5.411,0,0,1-.59.262A5.408,5.408,0,0,0,.59,136.843Q9.819,157.3,18.946,177.8c.127.285.291.556.426.812a1.3,1.3,0,0,0,.288-.043c5.763-2.575,11.533-5.138,17.282-7.745,1.65-.749,1.751-2.359.331-3.514-.945-.769-1.878-1.558-2.751-2.408a5.662,5.662,0,0,1-1.57-2.661A6.77,6.77,0,1,1,46.1,158.987a6.9,6.9,0,0,1-.455,4.413,1.734,1.734,0,0,0,.415,2.244,1.891,1.891,0,0,0,2.209.133c4.706-2.126,9.427-4.225,14.134-6.354.213-.1.438-.2.648-.317a.009.009,0,0,0,.006,0l.012-.009a.1.1,0,0,0,.035-.017l.035-.02a.286.286,0,0,1,.04-.023,2.229,2.229,0,0,0,.57-.469c.046-.055.092-.109.141-.158a6.987,6.987,0,0,0,1.164-3.6c-1.973-4.49-3.94-8.966-5.933-13.509,1.092-.058,2.054-.1,3.013-.161a8.213,8.213,0,0,0,6.481-3.742c3.911-5.749,1.21-12.826-4.709-14.684" transform="translate(0 -79.301)" fill="#dd3944"/><path d="M266.326,179.5a2.552,2.552,0,0,0-.04-1.573c-.392-1.141-.723-2.3-1.092-3.494l-.85-2.6q-.972-2.994-1.95-6.011c-.518-1.6-1.028-3.212-1.544-4.816a3.684,3.684,0,0,0-4.571-2.719,5.379,5.379,0,0,0-4.053,3.209,10.434,10.434,0,0,0-.579,6.221c.507,2.791.93,5.594,1.385,8.393a1.853,1.853,0,0,1-.046.354,22.128,22.128,0,0,1-2.166,1.184,21.064,21.064,0,0,0-2.874,4.182.35.35,0,0,1-.023.046c-.276.608-.553,1.213-.867,1.9.737.349,1.437.683,2.258,1.074.179-.334.334-.639.507-.933.573-.994,1.086-2.031,1.748-2.961a9.15,9.15,0,0,1,4.306-3.088c-.158-1-.305-1.979-.467-2.958-.461-2.8-.933-5.594-1.391-8.39a6.834,6.834,0,0,1,.585-4.1,2.781,2.781,0,0,1,1.915-1.6c1.095-.271,1.6.014,1.947,1.086q1.4,4.3,2.774,8.6c.781,2.425,1.547,4.853,2.339,7.273a3.071,3.071,0,0,1,.069,1.878c-1.112,4.009-2.18,8.03-3.255,12.048a16.932,16.932,0,0,1-2.25,4.13h-1.155c-7.725,0-15.45-.017-23.175.02a2.179,2.179,0,0,1-1.982-.982,10.5,10.5,0,0,1-2.082-5.674l-2.532,1.342c.282.971.5,1.878.838,2.736.383.962.907,1.866,1.408,2.872-1.138.7-1.276,1.866-1.221,3.151.069,1.65.046,3.3.055,4.957,0,.311-.029.625-.049.974-.277.02-.484.043-.694.049-1.642.052-1.921.337-1.9,2q.1,7.168.21,14.335c.006.343.046.683.069.988h2.46c-.063-4.922-.127-9.764-.19-14.721,11.478-.1,22.774-.184,34.094-.277.092,5.1.179,10.044.268,15.006h2.515c.014-.253.032-.432.029-.608q-.1-7.6-.213-15.2a3.536,3.536,0,0,0-.017-.429,1.37,1.37,0,0,0-1.414-1.339c-.418-.029-.838-.006-1.348-.006,0-.475.006-.827,0-1.178-.026-1.691-.072-3.379-.072-5.066a3.277,3.277,0,0,0-.864-2.6,36.073,36.073,0,0,0,1.754-4.13c1.2-4.171,2.258-8.382,3.39-12.572m-6.855,25.289c-.662.251-27.426.513-28.552.251V198.48h28.552Z" transform="translate(-160.659 -112.622)" fill="#101721"/><path d="M53.39,17.745q-.112-8.356-.23-16.709C53.154.691,53.119.343,53.1,0H50.631c.063,5.8.127,11.518.19,17.313-11.461.089-22.754.176-34.091.262-.092-5.951-.181-11.754-.274-17.555h-2.54c0,.38,0,.662,0,.948l.216,17.354a4.251,4.251,0,0,0,.009.429,1.361,1.361,0,0,0,1.457,1.4c.418.026.835.006,1.383.006,0,2.082.017,4.015-.006,5.951a3.684,3.684,0,0,0,.873,2.909,37.48,37.48,0,0,0-1.76,4.153c-1.2,4.171-2.284,8.376-3.376,12.575a3.241,3.241,0,0,0,.037,1.457c.17.76.452,1.495.683,2.235l.789,2.641c.107.279.23.565.328.861q1.815,5.63,3.623,11.265a3.724,3.724,0,0,0,4.5,2.7,5.116,5.116,0,0,0,4.11-3.237,10.615,10.615,0,0,0,.614-6.014c-.49-2.828-.942-5.666-1.406-8.5a3.06,3.06,0,0,1,0-.412,13.068,13.068,0,0,0,4.064-3.71.9.9,0,0,1,.23-.21l.544-3.076-1.613.717a2.715,2.715,0,0,0-1.273,1.077,9,9,0,0,1-3.955,3.381c-.259.118-.516.233-.827.377.248,1.55.484,3.068.734,4.583.374,2.3.775,4.6,1.135,6.9a6.707,6.707,0,0,1-.614,3.983,2.722,2.722,0,0,1-2.146,1.607c-.982.153-1.38-.1-1.688-1.054-.645-1.979-1.276-3.96-1.91-5.939-1.074-3.347-2.137-6.7-3.235-10.035a3.1,3.1,0,0,1-.04-1.878c1.06-3.837,2.117-7.676,3.093-11.533A14.968,14.968,0,0,1,20.7,29.684c1.449,0,2.921.012,4.39,0,6.823-.055,13.647-.1,20.47-.193a1.8,1.8,0,0,1,1.7.858,9.822,9.822,0,0,1,1.61,3.312c-.409.2-.8.383-1.19.565l3.687-1.645c-.622-1.218-1.207-2.359-1.835-3.586,1.164-.665,1.29-1.8,1.247-3.05-.058-1.688-.037-3.379-.046-5.066,0-.311.035-.625.052-.939.268-.026.446-.049.625-.058,1.786-.063,2.013-.3,1.987-2.134m-5.257,9c-.763.268-26.9.536-28.521.253v-6.63c.729-.251,27.161-.521,28.521-.256Z" transform="translate(-9.002)" fill="#101721"/><g transform="translate(7.855 99.984)"><path d="M64.454,366.989l-1.07-.257c.062-2.027.125-4.084.19-6.206h2.389v6.464Z" transform="translate(-52.983 -356.667)" fill="#f7cd22"/><path d="M94.239,354.018l-2.937-5.7,2.248-1.182,2.946,5.695-2.257,1.191" transform="translate(-72.86 -347.132)" fill="#f7cd22"/><path d="M27.273,353.195l2.945-5.7,2.261,1.171-2.935,5.69-2.271-1.158" transform="translate(-27.273 -347.388)" fill="#f7cd22"/></g><g transform="translate(80.308 0.276)"><path d="M281.776,19.169l-2.956-5.721,2.27-1.16,2.929,5.665-2.243,1.215" transform="translate(-278.82 -9.025)" fill="#f7cd22"/><path d="M345.133,19.439l-2.255-1.186,2.933-5.691,2.265,1.159-2.943,5.718" transform="translate(-324.427 -9.22)" fill="#f7cd22"/><rect width="2.439" height="6.31" transform="translate(10.519)" fill="#f7cd22"/></g><path d="M215.6,75.947a5.2,5.2,0,0,1-3.065,4.024c-.421.2-.844.38-1.345.6l-.85-2.6a2.833,2.833,0,0,0,2.428-4.1c-.06-.13-.107-.265-.164-.4q-7.95-19.014-15.9-38.023c-.135-.325-.288-.645-.469-1.048-1.377.57-2.635,1.092-3.891,1.616-3.741,1.561-7.477,3.134-11.227,4.672a3.2,3.2,0,0,1-1.541.294,1.975,1.975,0,0,1-1.564-2.333c.092-1.25.156-2.509.138-3.762A5.534,5.534,0,0,0,177,31.6a6.777,6.777,0,1,0-7.944,10.352c.913.36,1.757.726,1.769,1.881.014,1.21-.878,1.607-1.806,1.987q-5.776,2.363-11.541,4.752c-1.483.611-2.961,1.224-4.407,1.823A2.465,2.465,0,0,0,149.809,51l.21-.086c5.617-2.342,11.239-4.683,16.956-7.065-.372-.271-.651-.472-.927-.677a9.328,9.328,0,1,1,13.5-12.345,8.742,8.742,0,0,1,1.19,4.2c.046.965.009,1.936.009,3.062,2.886-1.2,5.68-2.35,8.474-3.514,2.774-1.155,5.545-2.324,8.379-3.514.176.366.32.642.441.93q8.49,20.3,16.976,40.606a5.873,5.873,0,0,1,.588,3.344" transform="translate(-106.66 -18.756)" fill="#f7cd22"/><path d="M248.076,225.79a21.065,21.065,0,0,0-2.875,4.182c-.055-.046-.109-.092-.164-.135q-9,3.75-18.022,7.512l-.012,0-2.532,1.342c-.02-.072-.04-.144-.063-.219a15.685,15.685,0,0,0-1.944.85,2.987,2.987,0,0,0-.665.536,6.987,6.987,0,0,0,1.164-3.6c.3-.1.5-.164.7-.245q12.21-5.107,24.413-10.228" transform="translate(-157.914 -160.756)" fill="#f7cd22"/></g></svg>