<svg xmlns="http://www.w3.org/2000/svg" width="98.881" height="98.706" viewBox="0 0 98.881 98.706"><path d="M110.071,235.629a2.043,2.043,0,0,0-1.878-2.371c-1.555-.393-3.114-.773-4.669-1.164-1.3-.326-2.6-.661-3.865-.982-1.086-2.624-2.139-5.171-3.191-7.715.179-.309.331-.589.495-.862q1.959-3.263,3.92-6.52c.888-1.48.816-2.117-.379-3.315q-3.335-3.342-6.677-6.677c-1.12-1.115-1.818-1.207-3.162-.406q-3.35,2-6.687,4.01c-.275.164-.555.316-.823.471-2.407-1-4.77-1.992-7.148-2.952a1.1,1.1,0,0,1-.736-.9c-.28-1.25-.616-2.489-.929-3.735-.367-1.461-.712-2.928-1.11-4.382a1.985,1.985,0,0,0-2.163-1.661c-.128,0-.258,0-.386,0H61.429a5.84,5.84,0,0,0-.77.024,1.936,1.936,0,0,0-1.712,1.349c-.094.273-.159.555-.229.835-.632,2.52-1.284,5.033-1.881,7.561a1.2,1.2,0,0,1-.823.941c-1.195.471-2.375.97-3.561,1.461s-2.361.978-3.539,1.465c-2.327-1.4-4.608-2.771-6.892-4.14-.357-.215-.71-.439-1.084-.623a1.827,1.827,0,0,0-2.233.282q-3.809,3.752-7.561,7.568a1.79,1.79,0,0,0-.261,2.228c.147.285.316.558.48.833,1.419,2.366,2.839,4.732,4.278,7.126l-3.2,7.718c-.321.092-.6.176-.874.246q-3.875.967-7.749,1.926a2.043,2.043,0,0,0-1.62,1.219,4.177,4.177,0,0,0-.169,1.323c-.014,2.346-.007,4.691-.007,7.037v1.021h88.051v-1.11c0-2.378.01-4.753,0-7.131m-3.906,8.191H86.642c.031-1.482.135-2.919.082-4.35a19.852,19.852,0,0,0-3.387-10.383,20.376,20.376,0,0,0-9.268-7.694,5.15,5.15,0,0,0-1-.321,1.87,1.87,0,0,0-1.383,3.382,12.749,12.749,0,0,0,1.366.7,16.636,16.636,0,0,1,9.782,13.777,15.791,15.791,0,0,1-.244,4.9H49.555a12.246,12.246,0,0,1-.377-4.053,16.954,16.954,0,0,1,9.794-14.593,14.914,14.914,0,0,0,1.386-.666,1.881,1.881,0,0,0,.811-2.337,1.857,1.857,0,0,0-2.289-1.086,16.133,16.133,0,0,0-4.369,2.192A20.77,20.77,0,0,0,45.5,243.272c.019.159.036.316.06.538H25.918c-.077-2.334-.022-4.659-.036-7.035.519-.145.973-.287,1.432-.4,2.146-.533,4.29-1.084,6.446-1.581a2.7,2.7,0,0,0,2.079-1.774c1.147-2.89,2.356-5.755,3.57-8.618a2.646,2.646,0,0,0-.222-2.639c-1.258-2.016-2.46-4.063-3.681-6.1-.164-.273-.321-.55-.425-.731,1.786-1.818,3.537-3.595,5.338-5.424.3.176.657.386,1.012.6,1.982,1.19,3.974,2.361,5.936,3.58a2.538,2.538,0,0,0,2.542.2c2.89-1.236,5.8-2.429,8.71-3.6a2.558,2.558,0,0,0,1.671-1.934c.541-2.344,1.147-4.671,1.731-7,.077-.309.169-.613.27-.966h7.539c.41,1.627.818,3.237,1.222,4.848.258,1.026.55,2.047.758,3.083a2.481,2.481,0,0,0,1.642,1.955q4.414,1.782,8.8,3.643a2.481,2.481,0,0,0,2.458-.2c2.018-1.25,4.063-2.458,6.1-3.679.3-.181.608-.352.811-.468l5.386,5.4c-.07.126-.22.4-.384.674-1.222,2.035-2.421,4.085-3.681,6.1a2.72,2.72,0,0,0-.227,2.728c1.207,2.832,2.4,5.668,3.539,8.529a2.776,2.776,0,0,0,2.149,1.823c2.344.543,4.671,1.147,7,1.731.244.06.483.142.765.229Z" transform="translate(-16.706 -149.037)" fill="#0e2340"/><path d="M98.881,394.1v1.156c-.323-.1-.36.183-.468.36a2.031,2.031,0,0,1-1.767.985c-.225.01-.451,0-.676,0q-46.622,0-93.244.017A2.766,2.766,0,0,1,0,395.261V394.1a2.617,2.617,0,0,1,2.728-1.362c.826.063,1.656.012,2.59.012H93.37c1,0,1.9.024,2.791-.007a2.281,2.281,0,0,1,2.4,1.246c.034.072.21.075.321.111" transform="translate(0 -297.921)" fill="#f8d7d2"/><path d="M0,35.273a15.565,15.565,0,0,1,1.176-1.5c6.916-6.939,13.862-13.848,20.759-20.806,1.513-1.526,2.59-1.413,3.975-.019q10.459,10.528,20.973,21a7.905,7.905,0,0,1,.6.734L71.793,10.37c-.059-.066-.232-.283-.427-.478q-2.993-3-5.991-6c-.2-.2-.415-.4-.6-.625a1.891,1.891,0,0,1,.4-2.985c.125-.088.243-.186.365-.28h31.8a3.54,3.54,0,0,1,1.279,1.323c.016.039.172.019.263.026v31.8a1.516,1.516,0,0,0-.417.283,1.935,1.935,0,0,1-3.256.275c-1.251-1.2-2.462-2.442-3.686-3.671-1.085-1.09-2.164-2.186-3.283-3.317-.313.3-.568.536-.812.78Q78.365,36.562,69.3,45.622a7.577,7.577,0,0,1-.85.78,1.855,1.855,0,0,1-2.536-.162,1.83,1.83,0,0,1-.143-2.46,7.028,7.028,0,0,1,.77-.857Q75.6,33.859,84.669,24.8a6.558,6.558,0,0,1,.769-.588L74.687,13.466,50.539,37.6c.773.774,1.612,1.605,2.44,2.449a5.994,5.994,0,0,1,.748.875,1.874,1.874,0,0,1-2.563,2.621,6.5,6.5,0,0,1-1.019-.872Q37.47,30,24.8,17.329c-.269-.269-.54-.535-.857-.849-.3.281-.556.513-.8.757q-9.608,9.6-19.215,19.206a6.942,6.942,0,0,1-.855.772A1.844,1.844,0,0,1,.322,36.7c-.106-.155-.214-.309-.322-.463v-.964M71,3.882c.536.815,23.186,23.424,23.79,23.757.175-2.787.092-22.988-.1-23.757Z" fill="#f7cd22"/><path d="M0,170.109a14.954,14.954,0,0,1,1.168-1.5q12.62-12.65,25.265-25.275a6.474,6.474,0,0,1,.937-.823,1.841,1.841,0,0,1,2.382.223,1.894,1.894,0,0,1,.217,2.386,6.322,6.322,0,0,1-.754.869c-.827.842-1.666,1.673-2.539,2.548.3.317.54.572.785.817q4.563,4.564,9.125,9.129a5.422,5.422,0,0,1,.795.959,1.876,1.876,0,0,1-2.556,2.569,5.474,5.474,0,0,1-.96-.793q-4.572-4.555-9.131-9.123c-.246-.246-.5-.483-.8-.77-.288.272-.546.5-.791.747q-9.607,9.6-19.213,19.2a6.944,6.944,0,0,1-.855.772,1.849,1.849,0,0,1-2.756-.509c-.106-.154-.214-.308-.321-.462v-.964" transform="translate(0 -107.851)" fill="#f7cd22"/><path d="M252.971,201.792a1.988,1.988,0,0,1-1.962-1.865,1.94,1.94,0,0,1,1.858-1.949,1.887,1.887,0,0,1,1.943,1.844,1.949,1.949,0,0,1-1.84,1.97" transform="translate(-190.412 -150.184)" fill="#f7cd22"/><path d="M200.351,294.976a1.93,1.93,0,0,1-1.912,1.886,1.99,1.99,0,0,1-1.962-1.96,1.958,1.958,0,0,1,1.939-1.872,1.9,1.9,0,0,1,1.935,1.946" transform="translate(-149.045 -222.29)" fill="#f7cd22"/></svg>