<svg xmlns="http://www.w3.org/2000/svg" width="109.187" height="110.305" viewBox="0 0 109.187 110.305"><g transform="translate(0)"><g transform="translate(0)"><path d="M123.2,18.52a13.027,13.027,0,0,1,5.612,2.8,2.934,2.934,0,0,1-.718-1.147A29.989,29.989,0,0,0,104.512.389c-.7-.11-1.389-.257-2.084-.389H97.467c-.738.124-1.47.254-2.208.372a29.427,29.427,0,0,0-18.14,10.1c-.069.081-.133.167-.179.231-.816-.164-8.786-.208-10.2-.058-.11.421-.219.865-.337,1.309a4.126,4.126,0,0,1-6.3,2.551c-.369-.219-.729-.45-1.153-.709-1.049,1.046-2.113,2.064-3.116,3.13l-3.629,4.211c.159.236.274.415.395.591a4.169,4.169,0,0,1-2.764,6.555,11.1,11.1,0,0,0-1.1.3v3.064l-.009,3.609V38.34c.453.112.824.222,1.2.3A4.171,4.171,0,0,1,52.1,45.76l3.2,3.724.006,0a2.457,2.457,0,0,1,.326.285c.144.147.291.294.438.441q1.1,1.124,2.231,2.228c.3.291.64.536.986.824a10.712,10.712,0,0,1,3.664-1.444,3.014,3.014,0,0,1,.816.15,4.138,4.138,0,0,1,1.1.585c1.28.9,1.574,2.329,1.853,3.739h9.873c.363-1.7.747-3.4,2.684-4.134.948,1.058,1.908,2.078,2.8,3.151,1.156,1.375,2.312,2.753,3.373,4.2a9.964,9.964,0,0,1,2.078,6.546c-.046.9,0,1.8-.006,2.7a4.96,4.96,0,0,0,.839,2.741c.15.236.306.47.47.721A5.3,5.3,0,0,0,87.58,76.56a5.5,5.5,0,0,0,2.672,3.791q-2.421,4.864-4.742,9.524c1.107,1.96,13.764,19.884,14.439,20.431q7.134-10.191,14.245-20.356c-1.62-3.249-3.188-6.393-4.794-9.607a5.439,5.439,0,0,0,2.678-3.767,5.364,5.364,0,0,0-1.277-4.41,5.76,5.76,0,0,0,1.355-4.263c-.043-.934-.023-1.871,0-2.8a9.558,9.558,0,0,1,1.862-5.246l-4.22.055c-.378,1.185-.724,2.263-1.069,3.349-.778.182-15.762.257-17.837.075-.807-4.246-3.545-7.313-6.206-10.426l3.3-3.125c-1.2-1-1.11-4.407-1.11-4.407-1.1,1.092-2.139,2.124-3.295,3.275a7.756,7.756,0,0,0-5.552.138,7.887,7.887,0,0,0-4.122,4H69.42a7.836,7.836,0,0,0-4.1-3.984,7.642,7.642,0,0,0-5.592-.127l-3.249-3.2a7.9,7.9,0,0,0-4.116-9.812V31.249c3.929-2.217,5.327-5.511,4.116-9.783l3.208-3.234a7.655,7.655,0,0,0,5.667-.135A7.772,7.772,0,0,0,69.414,14.1h4.422a7.886,7.886,0,0,0,9.887,4.136c1.038,1.055,2.067,2.1,3.162,3.217a8.138,8.138,0,0,0,.576,6.673c-.551.035-1.084.049-1.606.055l7.443,0a4.081,4.081,0,0,1-2.978-5.73c.262-.548.6-1.058.905-1.583a76.077,76.077,0,0,0-6.881-7.042c-.467.274-.943.579-1.441.845a3.922,3.922,0,0,1-4.393-.38c5.733-7.313,13.2-11.164,22.5-10.694,10.291.519,17.7,5.791,22.685,14.851-.265.043-.4.107-.5.072M99.8,91.52a1.684,1.684,0,0,1-1.706-1.7,1.723,1.723,0,0,1,1.761-1.773,1.745,1.745,0,0,1,1.712,1.721A1.7,1.7,0,0,1,99.8,91.52M91.027,66.932h17.517a4.508,4.508,0,0,1,.046,2.018,1.646,1.646,0,0,1-1.634,1.438c-.285.026-.574.017-.862.017H93.581c-.285,0-.577.009-.862-.014a1.693,1.693,0,0,1-1.683-1.637c-.055-.565-.009-1.141-.009-1.822m17.609,8.7a1.806,1.806,0,0,1-1.43,1.79,5.118,5.118,0,0,1-.966.043q-6.421,0-12.839,0a4.887,4.887,0,0,1-.966-.046,1.791,1.791,0,0,1-1.41-1.8,1.717,1.717,0,0,1,1.583-1.629c.5-.043,1.006-.02,1.508-.02q2.858,0,5.719,0,3.182,0,6.365,0a7.807,7.807,0,0,1,.862.02,1.746,1.746,0,0,1,1.574,1.64m-14.77,5.382h11.925l4.321,8.625c-2.776,3.969-5.549,7.933-8.359,11.948a39.784,39.784,0,0,1-.112-6.754c2.989-1.868,4.015-3.929,3.243-6.52a5.279,5.279,0,0,0-10.178.219c-.424,1.946-.092,4.589,3.324,6.255v6.958c-2.891-4.125-5.664-8.085-8.478-12.1,1.43-2.859,2.857-5.713,4.315-8.633m28.171-62.848a7.958,7.958,0,0,0,1.162.352,11.414,11.414,0,0,0-1.162-.352M87.983,49.778a5.684,5.684,0,0,0,.594.954,2.327,2.327,0,0,0-.594-.954M69.731,42.044a8.812,8.812,0,0,1-.778-16.967c3.514-1.147,7.725.184,9.521,3.006l4.327.1a12.543,12.543,0,0,0-7.662-6.543,11.861,11.861,0,0,0-7.621.216,12.31,12.31,0,0,0,1.277,23.568c4.782,1.176,10.657-.539,13.943-6.558l-4.358.035c-1.257,2.392-5.258,3.874-8.648,3.142m3.678-8.385c0-.029-.006-.058-.006-.086a1.757,1.757,0,0,1-3.508-.127,1.757,1.757,0,0,1,3.491-.262,4.429,4.429,0,0,1,1.7-3.782,5.292,5.292,0,0,0-7.362,7.567,5.278,5.278,0,0,0,7.29.565,5.685,5.685,0,0,1-1.6-3.874" transform="translate(-34.685)" fill="#e6716e"/><path d="M80.372,188.073V179.78a10.712,10.712,0,0,0-3.664,1.444v6.826c-3.032,1.995-4.007,3.984-3.237,6.566a5.288,5.288,0,0,0,10.106.023c.773-2.586-.219-4.624-3.205-6.566m-1.888,6.777a1.8,1.8,0,0,1-1.724-1.73,1.759,1.759,0,0,1,3.517-.032,1.775,1.775,0,0,1-1.793,1.761" transform="translate(-52.114 -127.958)" fill="#999da6"/><path d="M31.951,162.242c1.8-.009,3.594,0,5.393-.02a1.127,1.127,0,0,1,.689.213l-3.2-3.724H32.608c-.79,0-1.583-.02-2.372.006a7.366,7.366,0,0,0-2.283.138V180.18a5.276,5.276,0,1,0,6.8,6.615,5.065,5.065,0,0,0,.009-3.277,5.673,5.673,0,0,0-3.2-3.373c-.19-2-.112-17.033.089-17.831a1.3,1.3,0,0,1,.3-.072m-.476,22.968a1.749,1.749,0,0,1-1.741,1.695A1.811,1.811,0,0,1,28,185.071a1.782,1.782,0,0,1,1.764-1.686,1.737,1.737,0,0,1,1.712,1.825" transform="translate(-17.425 -112.951)" fill="#999da6"/><path d="M10.263,101.246c-1.534-3.2-4.064-3.788-6.246-3.309A5.262,5.262,0,0,0,3.7,108.075,5.105,5.105,0,0,0,7.086,108a5.573,5.573,0,0,0,3.174-3.148h3.788l.009-3.609ZM5.2,104.789a1.739,1.739,0,1,1,1.848-1.7,1.763,1.763,0,0,1-1.848,1.7" transform="translate(0 -69.602)" fill="#999da6"/><path d="M36.928,17.644c-1.435-.052-2.874-.012-4.309-.017-.317,0-.634-.035-1.015-.055v-7.3c.15-.086.331-.193.516-.291a5.04,5.04,0,0,0,2.926-4.993A5.09,5.09,0,0,0,31.2.2a1.947,1.947,0,0,1-.363-.2H28.681a3.539,3.539,0,0,1-.453.233,5.109,5.109,0,0,0-3.655,4.494,5.041,5.041,0,0,0,2.955,5.278c.153.081.306.167.525.288V21.138h6.941l3.629-4.211a2.033,2.033,0,0,1-1.695.718M29.733,7.036a1.791,1.791,0,0,1-1.695-1.758,1.8,1.8,0,0,1,1.81-1.758,1.76,1.76,0,0,1-.115,3.517" transform="translate(-17.468)" fill="#999da6"/><g transform="translate(84.53 73.913)"><path d="M293.517,281.084h24.515c.094,1.123.027,2.249.044,3.445H293.517Z" transform="translate(-293.44 -273.974)" fill="#d0cfd2"/><path d="M317.812,259.932H293.287c-.059-1.1-.026-2.195-.021-3.276.847-.234,21.754-.333,24.546-.124Z" transform="translate(-293.252 -256.417)" fill="#d0cfd2"/><rect width="24.524" height="3.366" transform="translate(0.073 14.185)" fill="#d0cfd2"/><rect width="3.429" height="3.392" transform="translate(17.644 21.244)" fill="#d0cfd2"/><path d="M309,329.9v3.445h-3.387v-3.36A25.563,25.563,0,0,1,309,329.9" transform="translate(-302.051 -308.709)" fill="#d0cfd2"/><path d="M329.895,330.1h3.443v3.387H329.98a26.242,26.242,0,0,1-.086-3.387" transform="translate(-319.324 -308.864)" fill="#d0cfd2"/></g><path d="M204.54,59.413H193.356c-1.214-1.1-2.251-2.093-3.355-3.009L190,56.4a3.659,3.659,0,0,1-.308-.282,0,0,0,0,1,0,0,13.028,13.028,0,0,0-5.612-2.8,7.958,7.958,0,0,1-1.162-.352,26.93,26.93,0,0,0-6.068-.608A43.6,43.6,0,0,1,162.358,49.4,5.529,5.529,0,0,0,159,49a4.571,4.571,0,0,0-3.514,3.9,8.628,8.628,0,0,0,6.535,9.074c1.251.306,2.531.481,3.8.715,0,.072-.009.141-.012.213-.268.023-.536.069-.8.069-3.416,0-6.832-.092-10.242.035a3.4,3.4,0,0,1-.594-.035l-7.443,0h-.046c-.487.006-.969,0-1.447,0h-1.562l-4.327-.1a18.514,18.514,0,0,0-1.816.536,13.949,13.949,0,0,0-1.5.833l-.072-.052a4.429,4.429,0,0,0-1.7,3.782,1.456,1.456,0,0,1,.023.277c0,.037,0,.075-.006.112s0,.058.006.086a5.685,5.685,0,0,0,1.6,3.874s.006,0,.009-.006c1.124.461,2.2.9,3.269,1.34l.089.035,4.358-.035.023-.04h4.693a7.969,7.969,0,0,0-.579,6.543s-.086,3.4,1.11,4.407a2.328,2.328,0,0,1,.594.954,5.7,5.7,0,0,0,2.79,1.885,6.147,6.147,0,0,0-.2,3.136,5.207,5.207,0,0,0,4.716,4.056c1,.063,2.009.037,3.015.037,3.266.006,6.535,0,9.8.006.343,0,.686.032,1.1.052l4.22-.055c.585,0,1.156-.009,1.73,0A35.53,35.53,0,0,0,192.2,91.409a3.589,3.589,0,0,1,1.453-.271c3.309-.023,6.618-.012,9.927-.012h1.029c.213-1.577.153-30.883-.072-31.714M190.658,70.557V88.163a15.13,15.13,0,0,1-3.283,1.358,30.469,30.469,0,0,1-9.521,1.594q-10.135.013-20.273.009a4.064,4.064,0,0,1-.752-.037,1.717,1.717,0,0,1-1.369-1.81,1.681,1.681,0,0,1,1.459-1.617,6.564,6.564,0,0,1,.859-.026q3.507,0,7.01,0H165.9V84.114c-.406-.014-.787-.04-1.17-.04q-5.124,0-10.244,0a8.343,8.343,0,0,1-1.075-.037,1.709,1.709,0,0,1-.337-3.324,4.269,4.269,0,0,1,1.271-.15c3.45-.012,6.9-.006,10.354-.006h1.211V77.106c-.375-.012-.752-.035-1.133-.035-3.485,0-6.973,0-10.461-.009a4.245,4.245,0,0,1-1.268-.161,1.708,1.708,0,0,1,.389-3.315,8.963,8.963,0,0,1,1.078-.035q5.067,0,10.138,0h1.286c.043-1.2.026-2.294.009-3.531-.467-.012-.882-.029-1.3-.029q-12.076,0-24.156,0c-.36,0-.724.017-1.078-.017a1.735,1.735,0,0,1,0-3.456,10.32,10.32,0,0,1,1.078-.02h24.695a7.367,7.367,0,0,0,1.185-.052,3.66,3.66,0,0,0,.081-7.235c-.951-.19-1.914-.32-2.868-.476a5.294,5.294,0,0,1-4.505-4.073,4.421,4.421,0,0,1-.107-1.067,1.041,1.041,0,0,1,1.228-1.144,2.984,2.984,0,0,1,.824.219A43.792,43.792,0,0,0,171.2,55.355c2.384.294,4.788.481,7.189.556a16.027,16.027,0,0,1,9.5,3.292c.793.608,1.476,1.363,2.22,2.038a1.764,1.764,0,0,1,.553,1.444c-.023,2.623-.009,5.246-.009,7.872m10.5,17.018h-6.95V63.039h6.95Z" transform="translate(-95.558 -34.794)" fill="#f7cd22"/><path d="M134.262,115.12a1.452,1.452,0,0,1,.023.277c0,.037,0,.075-.006.112q-.017-.2-.017-.389" transform="translate(-95.561 -81.936)" fill="#fff"/><path d="M139.911,130.19c1.124.461,2.2.9,3.269,1.34A6.865,6.865,0,0,1,139.9,130.2s.006,0,.009-.006" transform="translate(-99.575 -92.662)" fill="#fff"/><path d="M140.224,98.8l-.072-.052a6.981,6.981,0,0,1,3.39-1.317,18.518,18.518,0,0,0-1.816.536,13.95,13.95,0,0,0-1.5.833" transform="translate(-99.753 -69.346)" fill="#fff"/><path d="M71.492,171.67l.006,0,.764.726,3.217,3.053" transform="translate(-50.884 -122.186)" fill="#fff"/></g></g></svg>