<svg xmlns="http://www.w3.org/2000/svg" width="101.413" height="110.305" viewBox="0 0 101.413 110.305"><g transform="translate(0 0)"><g transform="translate(0 0)"><path d="M234.6,46.621c-.045-.368-.1-.734-.149-1.1A10.594,10.594,0,0,0,226,36.332a17.421,17.421,0,0,0-6.29-.235,10.689,10.689,0,0,0-9.656,9.018,8.689,8.689,0,0,0,.33,5.1c1.5,3.779,2.8,7.639,4.273,11.433a9.944,9.944,0,0,1,.4,4.077,22.128,22.128,0,0,1,3.88,1.646c-.083-.059-.166-.122-.247-.19V64.4c1.159-.042,2.329-.012,3.5-.018,1.144-.006,2.288,0,3.509,0v3.56h-1.729c-.963,0-1.925-.042-2.885.012a3.436,3.436,0,0,1-1.48-.217,34.136,34.136,0,0,1,5.443,3.765c.862,0,1.492.006,2.118,0,1.527-.018,2.157-.639,2.166-2.166.012-1.815-.024-3.631.018-5.446a5.889,5.889,0,0,1,.327-1.83q2.269-6.262,4.614-12.491a6.076,6.076,0,0,0,.306-2.942m-4.088,3.117c-1.328,3.331-2.546,6.709-3.806,10.069-.116.309-.238.615-.368.96H218.1c-1.15-3.046-2.282-6.055-3.414-9.065-.377-1-.758-2.006-1.123-3.016a2.447,2.447,0,0,1-.22-.85c.1-3.384,1.275-6.953,5.791-8.019a13.146,13.146,0,0,1,6.275.03,7.032,7.032,0,0,1,5.494,6,6.621,6.621,0,0,1-.4,3.889" transform="translate(-147.482 -25.246)" fill="#e6716e"/><path d="M51.338,72.7c-.413-1.239-.737-2.383-1.177-3.476-.452-1.126-1.013-2.208-1.551-3.36.247-.258.493-.529.752-.787,1.073-1.076,2.157-2.142,3.221-3.227,1.084-1.105,1.093-1.97.015-3.066q-2.38-2.411-4.8-4.8c-1.1-1.084-1.967-1.082-3.066,0-1.162,1.141-2.306,2.306-3.464,3.453-.2.2-.434.371-.6.508-1.159-.541-2.211-1.09-3.307-1.527-1.129-.449-2.3-.787-3.554-1.212V54.157c0-1.408.012-2.817-.006-4.225s-.657-2.056-2.035-2.068c-2.184-.021-4.371-.018-6.557,0-1.435.012-2.062.669-2.074,2.142s0,2.965-.006,4.448c0,.285-.051.568-.071.79-1.209.4-2.35.728-3.444,1.168-1.129.452-2.211,1.013-3.381,1.557-.241-.229-.511-.472-.77-.731-1.1-1.1-2.193-2.211-3.307-3.3a1.8,1.8,0,0,0-2.9-.051q-2.545,2.491-5.03,5.033a1.774,1.774,0,0,0,.036,2.823c1.135,1.168,2.3,2.309,3.453,3.464.229.232.44.481.526.576-.957,2.4-1.854,4.65-2.787,6.982-1.093,0-2.276-.018-3.461,0A1.8,1.8,0,0,0,.013,74.78C-.008,75.891.007,77,.007,78.114s-.018,2.225.006,3.337a1.805,1.805,0,0,0,2.006,1.991c.368.009.74,0,1.111,0H5.453c.978,2.436,1.881,4.686,2.864,7.14a7.012,7.012,0,0,0-.767.6c-1.111,1.09-2.22,2.184-3.3,3.3a1.747,1.747,0,0,0-.083,2.739q2.554,2.634,5.188,5.191a1.728,1.728,0,0,0,2.662,0c1.049-1,2.05-2.038,3.075-3.057.386-.389.778-.775,1.031-1.028,2.413.96,4.668,1.86,7.015,2.8V102c0,1.483-.021,2.965.009,4.448a1.763,1.763,0,0,0,1.869,1.9c.481.024.963.006,1.444.006h4.629a11.24,11.24,0,0,1-.719-3.613h-3.6c-.027-.27-.074-.55-.074-.832-.009-1.408.009-2.817-.009-4.225a1.782,1.782,0,0,0-1.655-2,21.816,21.816,0,0,1-7.791-3.1c-1.126-.728-1.78-.633-2.757.333-1.239,1.221-2.457,2.463-3.735,3.744l-2.835-2.8c.428-.431.838-.847,1.248-1.257.891-.894,1.8-1.768,2.668-2.68a1.715,1.715,0,0,0,.267-2.413,22.008,22.008,0,0,1-3.224-8.091,1.736,1.736,0,0,0-1.893-1.524c-1.1-.024-2.2-.006-3.363-.006V76.405c.256-.024.535-.071.817-.077.63-.012,1.26,0,1.89,0,1.919,0,2.285-.285,2.683-2.193a21.08,21.08,0,0,1,2.864-7.057c.874-1.376.805-1.946-.36-3.108-1.18-1.18-2.374-2.338-3.652-3.6.9-1.013,1.839-1.881,2.793-2.849.374.354.7.648,1,.954,1,.992,1.976,2.006,2.992,2.98a1.717,1.717,0,0,0,2.413.279,22.044,22.044,0,0,1,8.091-3.227,1.734,1.734,0,0,0,1.53-1.887c.027-1.331.006-2.668.009-4V51.477h3.476c.024.244.074.523.077.8.009,1.408-.009,2.817.009,4.225a1.784,1.784,0,0,0,1.634,2.023,21.757,21.757,0,0,1,7.886,3.147,1.766,1.766,0,0,0,2.585-.285c1.266-1.251,2.5-2.531,3.83-3.889,1.031.885,1.884,1.833,2.858,2.784-.318.342-.582.639-.862.918-.912.921-1.833,1.836-2.748,2.754-1.168,1.174-1.245,1.741-.377,3.108a21.079,21.079,0,0,1,2.891,7.164,3.758,3.758,0,0,1,.051.416,27.239,27.239,0,0,1,8.857-1.872c-1.548.006-3.1,0-4.65-.009-.318,0-.639-.045-.877-.059" transform="translate(0 -33.632)" fill="#999da6"/><path d="M63.926,107.913a12.482,12.482,0,1,0,6.4,24.076s2.739-7.8,8.56-11.2a12.661,12.661,0,0,0-14.963-12.877m2.386,21.149a8.894,8.894,0,1,1,8.92-9.012,8.908,8.908,0,0,1-8.92,9.012" transform="translate(-37.865 -75.696)" fill="#999da6"/><g transform="translate(55.157)"><path d="M211.5,5.976a1.645,1.645,0,0,1,1.454.893c.653,1.245,1.3,2.5,1.875,3.777A1.751,1.751,0,0,1,211.7,12.2c-.677-1.23-1.316-2.488-1.875-3.775A1.753,1.753,0,0,1,211.5,5.976" transform="translate(-202.53 -4.2)" fill="#e6716e"/><path d="M280.837,7.751a.912.912,0,0,1-.049.35,42.05,42.05,0,0,1-2.214,4.315,1.683,1.683,0,0,1-2.934-.519,1.579,1.579,0,0,1-.058-1.069c.664-1.435,1.355-2.863,2.138-4.235a1.6,1.6,0,0,1,1.975-.546,1.806,1.806,0,0,1,1.142,1.7" transform="translate(-248.808 -4.159)" fill="#e6716e"/><path d="M192.757,33.251a1.755,1.755,0,0,1-2.273,1.891,36.562,36.562,0,0,1-4.068-2.029,1.634,1.634,0,0,1-.547-2.25,1.673,1.673,0,0,1,2.172-.809c1.316.587,2.6,1.245,3.877,1.921a1.554,1.554,0,0,1,.839,1.276" transform="translate(-185.639 -21.023)" fill="#e6716e"/><path d="M300.536,31.92a1.544,1.544,0,0,1-.83,1.262c-1.267.675-2.547,1.331-3.857,1.918a1.751,1.751,0,0,1-1.539-3.136,42.794,42.794,0,0,1,3.86-1.911,1.764,1.764,0,0,1,2.367,1.867" transform="translate(-261.392 -21.028)" fill="#e6716e"/><path d="M249.056,3.551c0,.593.029,1.188-.007,1.779A1.764,1.764,0,0,1,247.278,7.1a1.743,1.743,0,0,1-1.761-1.775c-.042-1.185-.043-2.373,0-3.557A1.739,1.739,0,0,1,247.284,0a1.76,1.76,0,0,1,1.766,1.773c.035.591.007,1.186.006,1.779" transform="translate(-227.704 0.001)" fill="#e6716e"/></g><path d="M172.834,196.141a6.154,6.154,0,0,0-1.756-2.778q-8.107-8.089-16.2-16.19c-.336-.336-.663-.68-.992-1.019a28.529,28.529,0,0,0-4.718-37.336,34.134,34.134,0,0,0-5.443-3.765,3.017,3.017,0,0,1-.651-.351l-.015-.009a22.126,22.126,0,0,0-3.88-1.646c-.276-.062-.49-.1-.7-.16a29.384,29.384,0,0,0-8.548-1.191c-.487.006-.975.009-1.465.009a27.239,27.239,0,0,0-8.857,1.872l-6.982,4.082c-5.821,3.4-8.56,11.2-8.56,11.2-.493,1.625-1.061,3.164-1.411,4.751a33.7,33.7,0,0,0-.743,5.045c-.11,1.646.03,3.31.059,5.018a11.24,11.24,0,0,0,.719,3.613c4.677,18.466,26.637,27.65,43.742,16.371.282.342.52.674.805.963q8.009,8.022,16.033,16.039c.342.339.677.689,1.049,1a5.325,5.325,0,0,0,8.513-5.512m-42.506-11.071a24.906,24.906,0,1,1,24.9-24.652,24.9,24.9,0,0,1-24.9,24.652m38.614,13.745a1.76,1.76,0,0,1-2.332.116,3.767,3.767,0,0,1-.413-.371q-8.325-8.33-16.654-16.657c-.1-.1-.187-.223-.256-.3.838-.876,1.6-1.676,2.413-2.526.232.214.478.425.707.654q8.018,8.013,16.03,16.027a6.564,6.564,0,0,1,.677.734,1.748,1.748,0,0,1-.172,2.326" transform="translate(-71.604 -92.564)" fill="#f7cd22"/><path d="M125.782,177a21.341,21.341,0,1,1,21.33,21.363A21.386,21.386,0,0,1,125.782,177m21.389-17.772a17.789,17.789,0,1,0,17.752,17.664,17.806,17.806,0,0,0-17.752-17.664" transform="translate(-88.409 -109.419)" fill="#0e2340"/><path d="M163.517,237.564a14.274,14.274,0,0,1-13.525-11.751,14.718,14.718,0,0,1-.215-2.208,1.784,1.784,0,1,1,3.543-.1,10.74,10.74,0,0,0,10.093,10.483c.222.016.446,0,.666.029a1.771,1.771,0,0,1-.055,3.541c-.184.014-.37,0-.507,0" transform="translate(-105.274 -155.732)" fill="#f7cd22"/></g></g></svg>