<svg xmlns="http://www.w3.org/2000/svg" width="119.787" height="119.84" viewBox="0 0 119.787 119.84"><g transform="translate(-0.002 0)"><path d="M67.314,39.98l-.009,1.3.018.12c0-.471,0-.952-.009-1.423" transform="translate(-5.107 -3.034)" fill="#1a1818"/><path d="M54.943,51.64c-.222-.25-.471-.481-.7-.712q-4.893-4.893-9.786-9.8c-.323-.314-.628-.638-.97-.989l.009-.009-3.318-3.419c-2.615-2.624-5.2-5.212-7.873-7.883V23.343L32.1,17.6c.619-2.061-.444-3.151-1.58-4.279-4.02-3.964-8-7.984-12-11.986a9.776,9.776,0,0,0-.906-.85,2.3,2.3,0,0,0-3.586,1.063,4.868,4.868,0,0,0-.2,1.469c-.009,3.16,0,6.321,0,9.481v1.34H3.128a7.2,7.2,0,0,0-1,.028A2.306,2.306,0,0,0,.106,16.837,3.931,3.931,0,0,0,1.15,18.343c4.214,4.251,8.474,8.465,12.679,12.725A3.373,3.373,0,0,0,16.8,32.3a4.449,4.449,0,0,1,.7.055l5.859-.009h5.3c1.959,1.959,3.9,3.881,5.85,5.84l.194.185,5.232,4.974s1.331,1.285,1.433,1.388q4.781,4.793,9.571,9.57a9.579,9.579,0,0,0,.712.7,2.277,2.277,0,0,0,3.253-.018,2.306,2.306,0,0,0,.046-3.345M27.516,24.027a6.858,6.858,0,0,1-.693-.536c-.536-.518-1.09-1.026-1.589-1.589a2.387,2.387,0,1,0-3.382,3.327c.749.647,1.423,1.377,2.338,2.273-1.386.12-2.514.055-3.641.065-1.155.009-2.32,0-3.234,0-3.1-3.1-6.053-6.053-9.019-9.019H14.34a13.484,13.484,0,0,1,1.5.009,2.457,2.457,0,0,0,2.726-2.763c-.1-2.2-.028-4.408-.028-6.607V8.262c3,2.994,5.933,5.924,8.982,8.973Z" fill="#0e2340"/><path d="M103.871,101.379a2.365,2.365,0,0,1-2.331,2.393,2.319,2.319,0,1,1,2.331-2.392" transform="translate(-7.525 -7.521)" fill="#0e2340"/><g transform="translate(0.023 0.034)"><path d="M41.555,66.941c-2,.055-3.992.018-5.988.028h-1.3l-4.759.065H14.349l-6.1-.065c-2-.009-3.992.028-5.988-.028a2.241,2.241,0,0,1-2.209-2.7A2.312,2.312,0,0,1,2.4,62.255c1.044-.046,2.079-.009,3.124-.009H9.4l6.034.018.046-.065H29.5l4.815.046h3.826c1.081,0,2.162-.037,3.244.009a2.322,2.322,0,0,1,2.384,2.1,2.217,2.217,0,0,1-2.209,2.588" transform="translate(-0.025 -4.754)" fill="#fff"/><path d="M67.042,111.9l-.1,5.48-.009.24c-.009,1.867,0,3.743-.018,5.619a4.042,4.042,0,0,1-.157,1.34,2.256,2.256,0,0,1-2.107,1.5,2.286,2.286,0,0,1-2.218-1.516,4.864,4.864,0,0,1-.222-1.46c-.028-1.71-.009-3.41-.009-5.12v-1.312l.018-5.73-.083-.065V96.507l.065-4.99c0-2.107-.018-4.223.009-6.339a4.257,4.257,0,0,1,.268-1.571,2.314,2.314,0,0,1,4.279.111,3.866,3.866,0,0,1,.157,1.349c.018,1.867.009,3.743.018,5.609,0,.323.046.638.083,1.072l-.037,7.31c-.129,3.974-.129,11.265.065,12.845" transform="translate(-4.738 -6.274)" fill="#fff"/><path d="M126.027,64.787a2.3,2.3,0,0,1-2.32,2.153c-1.867.046-3.743.018-5.609.028h-1.432l-5.489-.019-.139.148c-2.467-.148-9.389-.185-12.781-.092l-6.765-.028v-.009H89c-1.479,0-2.966.009-4.454-.019a2.333,2.333,0,0,1-2.329-2.162,2.435,2.435,0,0,1,1.9-2.449,4.951,4.951,0,0,1,1.109-.092c1.793-.009,3.576,0,5.369-.009.314,0,.638-.028.961-.046l4.916.009v.009h15.276l4.861.037h2.661c1.248,0,2.5-.009,3.743,0a5.033,5.033,0,0,1,1.118.092,2.413,2.413,0,0,1,1.894,2.449" transform="translate(-6.261 -4.753)" fill="#fff"/><path d="M66.994,14.336v15.2l-.046,4.916H66.92v2.5l-.009,1.3.018.12c0,1.1-.009,2.2-.046,3.3a2.215,2.215,0,0,1-1.848,2.061,2.266,2.266,0,0,1-2.56-1.321,4.251,4.251,0,0,1-.268-1.451c-.028-1.784-.009-3.576-.009-5.369,0-.4-.037-.8-.055-1.257V14.188L62.1,9.42c.037-.36.083-.684.092-1,0-1.83-.009-3.66.009-5.489a4.315,4.315,0,0,1,.194-1.34A2.2,2.2,0,0,1,64.933.058a2.2,2.2,0,0,1,1.959,2.079c.055,1.081.028,2.162.028,3.244.009.675,0,1.358,0,2.052V9.346h.018l.028,2.929Z" transform="translate(-4.736 -0.037)" fill="#fff"/><path d="M66.916,64.647a2.257,2.257,0,0,1-2.372,2.31A2.358,2.358,0,0,1,62.22,64.68a2.469,2.469,0,0,1,2.363-2.415,2.322,2.322,0,0,1,2.333,2.382" transform="translate(-4.744 -4.759)" fill="#0e2340"/></g><g transform="translate(8.247 9.343)" opacity="0.43"><path d="M60.065,14.958a45.018,45.018,0,0,0-25.127,9.158l-.2-5.748c.6-.342.943-.508,1.257-.712A49.8,49.8,0,0,1,53.67,10.911c1.71-.314,3.456-.407,5.194-.6.36-.037.73-.074,1.164-.12Z" transform="translate(-10.883 -10.116)" fill="#ddd"/><path d="M115.481,58.293l-4.861-.037C109.807,34.387,89.163,15.47,67.39,15.1l-.028-2.061-.028-2.929a8.682,8.682,0,0,0,1.09.185,47.85,47.85,0,0,1,16.144,3.78,50.814,50.814,0,0,1,28.934,32.5,55.271,55.271,0,0,1,1.913,10.757c.019.286.037.564.065.961" transform="translate(-13.357 -10.11)" fill="#ddd"/><path d="M118.442,67.358c-.111.961-.231,1.848-.323,2.745a50.114,50.114,0,0,1-7.984,22.669,2.493,2.493,0,0,1-3.733.721,2.341,2.341,0,0,1-.554-2.735c.2-.407.462-.786.7-1.174A45.444,45.444,0,0,0,113.082,72.5c.277-1.636.4-3.29.582-4.926a5.666,5.666,0,0,0-.85-.083l.139-.148Z" transform="translate(-16.263 -14.453)" fill="#ddd"/><path d="M93.515,109.544a5.756,5.756,0,0,1-.887.675,50.086,50.086,0,0,1-19.693,7.624c-1.793.3-3.623.425-5.535.638-.009.2-.046.444-.065.675l.1-5.48c1.137-.1,2.283-.148,3.419-.3a45.944,45.944,0,0,0,19.2-7.116,5.128,5.128,0,0,1,1.09-.573,2.3,2.3,0,0,1,2.708,1,2.243,2.243,0,0,1-.342,2.856" transform="translate(-13.357 -17.354)" fill="#ddd"/><path d="M58.18,109.814l-.018,5.729c-13.1-.859-24.258-5.693-33.4-14.888A49.773,49.773,0,0,1,10.08,67.434c-.434-.028-.8-.074-1.155-.074l6.1.065C14.8,75.067,18.657,88.319,28.85,98.069c9.565,9.149,21.754,12.623,29.248,12.54v-.859Z" transform="translate(-8.925 -14.454)" fill="#ddd"/><path d="M15.155,60.136h1.09L16.2,60.2l-6.034-.018a50.764,50.764,0,0,1,8.1-25.173L24.128,35c-6.552,8.169-9.454,19.869-8.973,25.136" transform="translate(-9.019 -11.999)" fill="#ddd"/></g><g transform="translate(29.493 29.535)" opacity="0.7"><path d="M42.533,46.667a25.6,25.6,0,0,0-5.8,14.01l-4.815-.046a33.6,33.6,0,0,1,2.264-9.2,31.492,31.492,0,0,1,4.861-7.994L37.118,41.52Z" transform="translate(-31.915 -32.685)" fill="#d7e9f9"/><path d="M60.728,31.96v4.8a25.532,25.532,0,0,0-13.936,5.8l-3.317-3.42a30.823,30.823,0,0,1,17.253-7.18" transform="translate(-32.792 -31.96)" fill="#d7e9f9"/><path d="M97.132,67.4c-.878.028-1.525.055-1.793.1a30.625,30.625,0,0,1-27.8,27.871,18.989,18.989,0,0,0-.166,2.56l.037-7.31A25.187,25.187,0,0,0,83.822,82.48c4.066-4.436,7.106-11.588,6.543-15.109Z" transform="translate(-34.606 -34.647)" fill="#d7e9f9"/><path d="M59.907,90.389l-.065,4.99A30.631,30.631,0,0,1,31.925,67.425l4.759-.065a25.651,25.651,0,0,0,10.054,18.1c3.9,3.04,10.5,5.471,13.169,4.926" transform="translate(-31.916 -34.646)" fill="#d7e9f9"/><path d="M95.346,59.9l-4.917,0c-.545-12.078-11.616-22.548-23.084-23.02l.046-4.916A30.647,30.647,0,0,1,95.346,59.905" transform="translate(-34.604 -31.96)" fill="#d7e9f9"/></g></g></svg>