<svg xmlns="http://www.w3.org/2000/svg" width="112.553" height="125" viewBox="0 0 112.553 125"><g transform="translate(0.001)"><path d="M55.156,86.511A57.5,57.5,0,0,1,84.3,94.191a86.681,86.681,0,0,1,27.163,24.275c1.442,1.93,1.456,2.684.022,4.578-9.5,12.548-21.023,22.562-35.864,28.352a52.37,52.37,0,0,1-23.161,3.53,57.984,57.984,0,0,1-24.635-7.807A87.444,87.444,0,0,1,1.163,123.177c-1.541-2.056-1.555-2.749-.022-4.774C10.1,106.569,20.921,97,34.677,91.066a51.8,51.8,0,0,1,20.479-4.555m.681,5.094A50.221,50.221,0,0,0,36.672,95.8C24.39,101.1,14.68,109.632,6.38,119.94c-.578.718-.384,1.17.1,1.77,7.147,8.907,15.441,16.47,25.591,21.855a51.266,51.266,0,0,0,24.25,6.374,49.049,49.049,0,0,0,19.848-4.307c12.169-5.34,21.813-13.823,30.044-24.078.527-.657.37-1.094-.093-1.672a85.131,85.131,0,0,0-21.559-19.573,54.289,54.289,0,0,0-28.723-8.7" transform="translate(0 -58.31)" fill="#fff"/><g transform="translate(7.41)" opacity="0.45"><path d="M168.38,0a3.025,3.025,0,0,1,1.561,2.925c-.05,5.077-.017,10.154-.023,15.232,0,1.858-.917,2.9-2.516,2.9s-2.511-1.041-2.513-2.9c-.006-5.077.028-10.155-.022-15.232A3.019,3.019,0,0,1,166.428,0Z" transform="translate(-118.535)" fill="#fff"/><path d="M169.956,329.342c0,2.556.008,5.112,0,7.669-.009,1.748-.953,2.773-2.516,2.772s-2.507-1.026-2.51-2.777q-.014-7.79,0-15.581c0-1.748.951-2.772,2.515-2.771s2.5,1.026,2.512,2.776c.011,2.637,0,5.275,0,7.912" transform="translate(-118.572 -214.783)" fill="#fff"/><path d="M277.919,72.235a2.815,2.815,0,0,1-2.677-1.544,2.344,2.344,0,0,1,.464-2.812c1.376-1.439,2.8-2.832,4.208-4.241,1.953-1.956,3.9-3.917,5.866-5.86,1.347-1.332,2.851-1.418,3.96-.264,1.076,1.12.981,2.567-.319,3.875-3.265,3.287-6.535,6.571-9.845,9.813a7.788,7.788,0,0,1-1.657,1.033" transform="translate(-192.747 -38.224)" fill="#fff"/><path d="M290.527,298.992a2.828,2.828,0,0,1-1.5,2.724,2.351,2.351,0,0,1-2.82-.424c-1.043-.966-2.03-1.993-3.036-3q-3.538-3.533-7.068-7.072c-1.354-1.364-1.457-2.829-.316-3.96s2.6-1.01,3.961.346c3.228,3.21,6.458,6.418,9.646,9.667a9.266,9.266,0,0,1,1.136,1.716" transform="translate(-192.769 -193.109)" fill="#fff"/><path d="M25.661,56.582a6.822,6.822,0,0,1,1.588.949q5.05,4.949,10.014,9.985c1.26,1.273,1.289,2.8.157,3.874-1.1,1.042-2.545.972-3.785-.258q-5.021-4.979-10-10a2.441,2.441,0,0,1-.675-2.881,2.819,2.819,0,0,1,2.7-1.671" transform="translate(-22.736 -38.138)" fill="#fff"/><path d="M25.654,302.038a2.834,2.834,0,0,1-2.7-1.685,2.386,2.386,0,0,1,.606-2.787c1.561-1.6,3.152-3.169,4.732-4.75,1.752-1.753,3.5-3.515,5.262-5.255,1.309-1.292,2.755-1.4,3.874-.326,1.152,1.1,1.078,2.621-.256,3.964-3.265,3.286-6.535,6.569-9.846,9.809a7.74,7.74,0,0,1-1.671,1.031" transform="translate(-22.733 -193.112)" fill="#fff"/></g><path d="M126.938,123.992a22.146,22.146,0,0,1,21.989,18.8c1.745,11.893-6.56,23.325-18.4,25.037a22.061,22.061,0,0,1-25.393-19.351,31.24,31.24,0,0,1,.216-6.311,2.554,2.554,0,1,1,5.029.851,16.945,16.945,0,1,0,19.63-13.687,17.719,17.719,0,0,0-8.644.722c-1.684.546-2.959.107-3.561-1.156a2.545,2.545,0,0,1,1.65-3.6,19.037,19.037,0,0,1,7.487-1.3" transform="translate(-70.799 -83.562)" fill="#fff"/><path d="M162.148,171.322a9.836,9.836,0,1,1-9.737-9.872,9.721,9.721,0,0,1,9.737,9.872m-5.056-.055a4.782,4.782,0,1,0-4.734,4.8,4.939,4.939,0,0,0,4.734-4.8" transform="translate(-96.033 -108.822)" fill="#dd3944"/><path d="M125.054,149.011a2.512,2.512,0,1,1-2.5-2.521,2.417,2.417,0,0,1,2.5,2.521" transform="translate(-80.904 -98.739)" fill="#dd3944"/></g></svg>